<?xml version="1.0" encoding="utf-8" standalone="no"?>
<!DOCTYPE svg PUBLIC "-//W3C//DTD SVG 1.1//EN"
  "http://www.w3.org/Graphics/SVG/1.1/DTD/svg11.dtd">
<svg xmlns:xlink="http://www.w3.org/1999/xlink" width="612pt" height="792pt" viewBox="0 0 612 792" xmlns="http://www.w3.org/2000/svg" version="1.1">
 <metadata>
  <rdf:RDF xmlns:dc="http://purl.org/dc/elements/1.1/" xmlns:cc="http://creativecommons.org/ns#" xmlns:rdf="http://www.w3.org/1999/02/22-rdf-syntax-ns#">
   <cc:Work>
    <dc:type rdf:resource="http://purl.org/dc/dcmitype/StillImage"/>
    <dc:date>2026-04-02T12:25:43.237068</dc:date>
    <dc:format>image/svg+xml</dc:format>
    <dc:creator>
     <cc:Agent>
      <dc:title>Matplotlib v3.9.1, https://matplotlib.org/</dc:title>
     </cc:Agent>
    </dc:creator>
   </cc:Work>
  </rdf:RDF>
 </metadata>
 <defs>
  <style type="text/css">*{stroke-linejoin: round; stroke-linecap: butt}</style>
 </defs>
 <g id="figure_1">
  <g id="patch_1">
   <path d="M 0 792 
L 612 792 
L 612 0 
L 0 0 
z
" style="fill: #ffffff"/>
  </g>
  <g id="axes_1">
   <g id="patch_2">
    <path d="M 165.24 142.56 
L 306.185455 142.56 
L 306.185455 116.182545 
L 165.24 116.182545 
z
" style="fill: #ffffff"/>
   </g>
   <g id="patch_3">
    <path d="M 306.185455 142.56 
L 306.185455 142.56 
L 305.304545 142.56 
L 305.304545 142.56 
L 304.423636 142.56 
L 304.423636 142.56 
L 303.542727 142.56 
L 303.542727 142.56 
L 302.661818 142.56 
L 302.661818 142.56 
L 301.780909 142.56 
L 301.780909 142.56 
L 300.9 142.56 
L 300.9 142.56 
L 300.019091 142.56 
L 300.019091 142.56 
L 299.138182 142.56 
L 299.138182 142.56 
L 298.257273 142.56 
L 298.257273 142.56 
L 297.376364 142.56 
L 297.376364 142.56 
L 296.495455 142.56 
L 296.495455 142.56 
L 295.614545 142.56 
L 295.614545 142.406821 
L 294.733636 142.406821 
L 294.733636 142.56 
L 293.852727 142.56 
L 293.852727 142.56 
L 292.971818 142.56 
L 292.971818 142.56 
L 292.090909 142.56 
L 292.090909 142.56 
L 291.21 142.56 
L 291.21 142.56 
L 290.329091 142.56 
L 290.329091 142.56 
L 289.448182 142.56 
L 289.448182 142.56 
L 288.567273 142.56 
L 288.567273 142.56 
L 287.686364 142.56 
L 287.686364 142.56 
L 286.805455 142.56 
L 286.805455 142.56 
L 285.924545 142.56 
L 285.924545 142.406821 
L 285.043636 142.406821 
L 285.043636 142.56 
L 284.162727 142.56 
L 284.162727 142.56 
L 283.281818 142.56 
L 283.281818 142.56 
L 282.400909 142.56 
L 282.400909 142.56 
L 281.52 142.56 
L 281.52 142.56 
L 280.639091 142.56 
L 280.639091 142.56 
L 279.758182 142.56 
L 279.758182 142.56 
L 278.877273 142.56 
L 278.877273 142.56 
L 277.996364 142.56 
L 277.996364 142.406821 
L 277.115455 142.406821 
L 277.115455 142.56 
L 276.234545 142.56 
L 276.234545 142.56 
L 275.353636 142.56 
L 275.353636 142.56 
L 274.472727 142.56 
L 274.472727 142.56 
L 273.591818 142.56 
L 273.591818 142.56 
L 272.710909 142.56 
L 272.710909 142.56 
L 271.83 142.56 
L 271.83 142.406821 
L 270.949091 142.406821 
L 270.949091 142.56 
L 270.068182 142.56 
L 270.068182 142.56 
L 269.187273 142.56 
L 269.187273 142.56 
L 268.306364 142.56 
L 268.306364 142.56 
L 267.425455 142.56 
L 267.425455 142.56 
L 266.544545 142.56 
L 266.544545 142.56 
L 265.663636 142.56 
L 265.663636 142.56 
L 264.782727 142.56 
L 264.782727 142.56 
L 263.901818 142.56 
L 263.901818 142.56 
L 263.020909 142.56 
L 263.020909 142.253642 
L 262.14 142.253642 
L 262.14 142.56 
L 261.259091 142.56 
L 261.259091 142.406821 
L 260.378182 142.406821 
L 260.378182 142.253642 
L 259.497273 142.253642 
L 259.497273 142.406821 
L 258.616364 142.406821 
L 258.616364 142.100462 
L 257.735455 142.100462 
L 257.735455 142.406821 
L 256.854545 142.406821 
L 256.854545 142.100462 
L 255.973636 142.100462 
L 255.973636 141.487746 
L 255.092727 141.487746 
L 255.092727 142.253642 
L 254.211818 142.253642 
L 254.211818 142.253642 
L 253.330909 142.253642 
L 253.330909 142.253642 
L 252.45 142.253642 
L 252.45 142.100462 
L 251.569091 142.100462 
L 251.569091 141.487746 
L 250.688182 141.487746 
L 250.688182 141.640925 
L 249.807273 141.640925 
L 249.807273 141.947283 
L 248.926364 141.947283 
L 248.926364 141.640925 
L 248.045455 141.640925 
L 248.045455 141.334567 
L 247.164545 141.334567 
L 247.164545 142.406821 
L 246.283636 142.406821 
L 246.283636 141.181387 
L 245.402727 141.181387 
L 245.402727 141.487746 
L 244.521818 141.487746 
L 244.521818 139.802775 
L 243.640909 139.802775 
L 243.640909 138.117804 
L 242.76 138.117804 
L 242.76 138.73052 
L 241.879091 138.73052 
L 241.879091 138.8837 
L 240.998182 138.8837 
L 240.998182 135.207399 
L 240.117273 135.207399 
L 240.117273 130.152486 
L 239.236364 130.152486 
L 239.236364 117.438614 
L 238.355455 117.438614 
L 238.355455 123.565781 
L 237.474545 123.565781 
L 237.474545 133.522428 
L 236.593636 133.522428 
L 236.593636 135.207399 
L 235.712727 135.207399 
L 235.712727 137.198729 
L 234.831818 137.198729 
L 234.831818 139.802775 
L 233.950909 139.802775 
L 233.950909 141.487746 
L 233.07 141.487746 
L 233.07 140.72185 
L 232.189091 140.72185 
L 232.189091 141.181387 
L 231.308182 141.181387 
L 231.308182 141.640925 
L 230.427273 141.640925 
L 230.427273 141.334567 
L 229.546364 141.334567 
L 229.546364 142.406821 
L 228.665455 142.406821 
L 228.665455 142.56 
L 227.784545 142.56 
L 227.784545 142.406821 
L 226.903636 142.406821 
L 226.903636 142.56 
L 226.022727 142.56 
L 226.022727 142.56 
L 225.141818 142.56 
L 225.141818 141.947283 
L 224.260909 141.947283 
L 224.260909 142.253642 
L 223.38 142.253642 
L 223.38 142.56 
L 222.499091 142.56 
L 222.499091 142.100462 
L 221.618182 142.100462 
L 221.618182 142.406821 
L 220.737273 142.406821 
L 220.737273 142.56 
L 219.856364 142.56 
L 219.856364 142.56 
L 218.975455 142.56 
L 218.975455 142.56 
L 218.094545 142.56 
L 218.094545 142.56 
L 217.213636 142.56 
L 217.213636 142.406821 
L 216.332727 142.406821 
L 216.332727 142.100462 
L 215.451818 142.100462 
L 215.451818 142.56 
L 214.570909 142.56 
L 214.570909 142.56 
L 213.69 142.56 
L 213.69 142.56 
L 212.809091 142.56 
L 212.809091 142.56 
L 211.928182 142.56 
L 211.928182 142.56 
L 211.047273 142.56 
L 211.047273 142.56 
L 210.166364 142.56 
L 210.166364 142.56 
L 209.285455 142.56 
L 209.285455 142.56 
L 208.404545 142.56 
L 208.404545 142.56 
L 207.523636 142.56 
L 207.523636 142.56 
L 206.642727 142.56 
L 206.642727 142.56 
L 205.761818 142.56 
L 205.761818 142.253642 
L 204.880909 142.253642 
L 204.880909 142.56 
L 204 142.56 
L 204 142.56 
L 203.119091 142.56 
L 203.119091 142.406821 
L 202.238182 142.406821 
L 202.238182 142.56 
L 201.357273 142.56 
L 201.357273 142.406821 
L 200.476364 142.406821 
L 200.476364 142.56 
L 199.595455 142.56 
L 199.595455 142.56 
L 198.714545 142.56 
L 198.714545 142.56 
L 197.833636 142.56 
L 197.833636 142.56 
L 196.952727 142.56 
L 196.952727 142.56 
L 196.071818 142.56 
L 196.071818 142.56 
L 195.190909 142.56 
L 195.190909 142.56 
L 194.31 142.56 
L 194.31 142.56 
L 193.429091 142.56 
L 193.429091 142.56 
L 192.548182 142.56 
L 192.548182 142.56 
L 191.667273 142.56 
L 191.667273 142.56 
L 190.786364 142.56 
L 190.786364 142.56 
L 189.905455 142.56 
L 189.905455 142.406821 
L 189.024545 142.406821 
L 189.024545 142.56 
L 188.143636 142.56 
L 188.143636 142.56 
L 187.262727 142.56 
L 187.262727 142.56 
L 186.381818 142.56 
L 186.381818 142.56 
L 185.500909 142.56 
L 185.500909 142.56 
L 184.62 142.56 
L 184.62 142.56 
L 183.739091 142.56 
L 183.739091 142.56 
L 182.858182 142.56 
L 182.858182 142.56 
L 181.977273 142.56 
L 181.977273 142.56 
L 181.096364 142.56 
L 181.096364 142.56 
L 180.215455 142.56 
L 180.215455 142.56 
L 179.334545 142.56 
L 179.334545 142.56 
L 178.453636 142.56 
L 178.453636 142.56 
L 177.572727 142.56 
L 177.572727 142.56 
L 176.691818 142.56 
L 176.691818 142.56 
L 175.810909 142.56 
L 175.810909 142.406821 
L 174.93 142.406821 
L 174.93 142.56 
L 174.049091 142.56 
L 174.049091 142.56 
L 173.168182 142.56 
L 173.168182 142.56 
L 172.287273 142.56 
L 172.287273 142.56 
L 171.406364 142.56 
L 171.406364 142.56 
L 170.525455 142.56 
L 170.525455 142.56 
L 169.644545 142.56 
L 169.644545 142.56 
L 168.763636 142.56 
L 168.763636 142.406821 
L 167.882727 142.406821 
L 167.882727 142.56 
L 167.001818 142.56 
L 167.001818 142.406821 
L 166.120909 142.406821 
L 166.120909 142.56 
L 165.24 142.56 
L 165.24 142.56 
L 166.120909 142.56 
L 166.120909 142.56 
L 167.001818 142.56 
L 167.001818 142.56 
L 167.882727 142.56 
L 167.882727 142.56 
L 168.763636 142.56 
L 168.763636 142.56 
L 169.644545 142.56 
L 169.644545 142.56 
L 170.525455 142.56 
L 170.525455 142.56 
L 171.406364 142.56 
L 171.406364 142.56 
L 172.287273 142.56 
L 172.287273 142.56 
L 173.168182 142.56 
L 173.168182 142.56 
L 174.049091 142.56 
L 174.049091 142.56 
L 174.93 142.56 
L 174.93 142.56 
L 175.810909 142.56 
L 175.810909 142.56 
L 176.691818 142.56 
L 176.691818 142.56 
L 177.572727 142.56 
L 177.572727 142.56 
L 178.453636 142.56 
L 178.453636 142.56 
L 179.334545 142.56 
L 179.334545 142.56 
L 180.215455 142.56 
L 180.215455 142.56 
L 181.096364 142.56 
L 181.096364 142.56 
L 181.977273 142.56 
L 181.977273 142.56 
L 182.858182 142.56 
L 182.858182 142.56 
L 183.739091 142.56 
L 183.739091 142.56 
L 184.62 142.56 
L 184.62 142.56 
L 185.500909 142.56 
L 185.500909 142.56 
L 186.381818 142.56 
L 186.381818 142.56 
L 187.262727 142.56 
L 187.262727 142.56 
L 188.143636 142.56 
L 188.143636 142.56 
L 189.024545 142.56 
L 189.024545 142.56 
L 189.905455 142.56 
L 189.905455 142.56 
L 190.786364 142.56 
L 190.786364 142.56 
L 191.667273 142.56 
L 191.667273 142.56 
L 192.548182 142.56 
L 192.548182 142.56 
L 193.429091 142.56 
L 193.429091 142.56 
L 194.31 142.56 
L 194.31 142.56 
L 195.190909 142.56 
L 195.190909 142.56 
L 196.071818 142.56 
L 196.071818 142.56 
L 196.952727 142.56 
L 196.952727 142.56 
L 197.833636 142.56 
L 197.833636 142.56 
L 198.714545 142.56 
L 198.714545 142.56 
L 199.595455 142.56 
L 199.595455 142.56 
L 200.476364 142.56 
L 200.476364 142.56 
L 201.357273 142.56 
L 201.357273 142.56 
L 202.238182 142.56 
L 202.238182 142.56 
L 203.119091 142.56 
L 203.119091 142.56 
L 204 142.56 
L 204 142.56 
L 204.880909 142.56 
L 204.880909 142.56 
L 205.761818 142.56 
L 205.761818 142.56 
L 206.642727 142.56 
L 206.642727 142.56 
L 207.523636 142.56 
L 207.523636 142.56 
L 208.404545 142.56 
L 208.404545 142.56 
L 209.285455 142.56 
L 209.285455 142.56 
L 210.166364 142.56 
L 210.166364 142.56 
L 211.047273 142.56 
L 211.047273 142.56 
L 211.928182 142.56 
L 211.928182 142.56 
L 212.809091 142.56 
L 212.809091 142.56 
L 213.69 142.56 
L 213.69 142.56 
L 214.570909 142.56 
L 214.570909 142.56 
L 215.451818 142.56 
L 215.451818 142.56 
L 216.332727 142.56 
L 216.332727 142.56 
L 217.213636 142.56 
L 217.213636 142.56 
L 218.094545 142.56 
L 218.094545 142.56 
L 218.975455 142.56 
L 218.975455 142.56 
L 219.856364 142.56 
L 219.856364 142.56 
L 220.737273 142.56 
L 220.737273 142.56 
L 221.618182 142.56 
L 221.618182 142.56 
L 222.499091 142.56 
L 222.499091 142.56 
L 223.38 142.56 
L 223.38 142.56 
L 224.260909 142.56 
L 224.260909 142.56 
L 225.141818 142.56 
L 225.141818 142.56 
L 226.022727 142.56 
L 226.022727 142.56 
L 226.903636 142.56 
L 226.903636 142.56 
L 227.784545 142.56 
L 227.784545 142.56 
L 228.665455 142.56 
L 228.665455 142.56 
L 229.546364 142.56 
L 229.546364 142.56 
L 230.427273 142.56 
L 230.427273 142.56 
L 231.308182 142.56 
L 231.308182 142.56 
L 232.189091 142.56 
L 232.189091 142.56 
L 233.07 142.56 
L 233.07 142.56 
L 233.950909 142.56 
L 233.950909 142.56 
L 234.831818 142.56 
L 234.831818 142.56 
L 235.712727 142.56 
L 235.712727 142.56 
L 236.593636 142.56 
L 236.593636 142.56 
L 237.474545 142.56 
L 237.474545 142.56 
L 238.355455 142.56 
L 238.355455 142.56 
L 239.236364 142.56 
L 239.236364 142.56 
L 240.117273 142.56 
L 240.117273 142.56 
L 240.998182 142.56 
L 240.998182 142.56 
L 241.879091 142.56 
L 241.879091 142.56 
L 242.76 142.56 
L 242.76 142.56 
L 243.640909 142.56 
L 243.640909 142.56 
L 244.521818 142.56 
L 244.521818 142.56 
L 245.402727 142.56 
L 245.402727 142.56 
L 246.283636 142.56 
L 246.283636 142.56 
L 247.164545 142.56 
L 247.164545 142.56 
L 248.045455 142.56 
L 248.045455 142.56 
L 248.926364 142.56 
L 248.926364 142.56 
L 249.807273 142.56 
L 249.807273 142.56 
L 250.688182 142.56 
L 250.688182 142.56 
L 251.569091 142.56 
L 251.569091 142.56 
L 252.45 142.56 
L 252.45 142.56 
L 253.330909 142.56 
L 253.330909 142.56 
L 254.211818 142.56 
L 254.211818 142.56 
L 255.092727 142.56 
L 255.092727 142.56 
L 255.973636 142.56 
L 255.973636 142.56 
L 256.854545 142.56 
L 256.854545 142.56 
L 257.735455 142.56 
L 257.735455 142.56 
L 258.616364 142.56 
L 258.616364 142.56 
L 259.497273 142.56 
L 259.497273 142.56 
L 260.378182 142.56 
L 260.378182 142.56 
L 261.259091 142.56 
L 261.259091 142.56 
L 262.14 142.56 
L 262.14 142.56 
L 263.020909 142.56 
L 263.020909 142.56 
L 263.901818 142.56 
L 263.901818 142.56 
L 264.782727 142.56 
L 264.782727 142.56 
L 265.663636 142.56 
L 265.663636 142.56 
L 266.544545 142.56 
L 266.544545 142.56 
L 267.425455 142.56 
L 267.425455 142.56 
L 268.306364 142.56 
L 268.306364 142.56 
L 269.187273 142.56 
L 269.187273 142.56 
L 270.068182 142.56 
L 270.068182 142.56 
L 270.949091 142.56 
L 270.949091 142.56 
L 271.83 142.56 
L 271.83 142.56 
L 272.710909 142.56 
L 272.710909 142.56 
L 273.591818 142.56 
L 273.591818 142.56 
L 274.472727 142.56 
L 274.472727 142.56 
L 275.353636 142.56 
L 275.353636 142.56 
L 276.234545 142.56 
L 276.234545 142.56 
L 277.115455 142.56 
L 277.115455 142.56 
L 277.996364 142.56 
L 277.996364 142.56 
L 278.877273 142.56 
L 278.877273 142.56 
L 279.758182 142.56 
L 279.758182 142.56 
L 280.639091 142.56 
L 280.639091 142.56 
L 281.52 142.56 
L 281.52 142.56 
L 282.400909 142.56 
L 282.400909 142.56 
L 283.281818 142.56 
L 283.281818 142.56 
L 284.162727 142.56 
L 284.162727 142.56 
L 285.043636 142.56 
L 285.043636 142.56 
L 285.924545 142.56 
L 285.924545 142.56 
L 286.805455 142.56 
L 286.805455 142.56 
L 287.686364 142.56 
L 287.686364 142.56 
L 288.567273 142.56 
L 288.567273 142.56 
L 289.448182 142.56 
L 289.448182 142.56 
L 290.329091 142.56 
L 290.329091 142.56 
L 291.21 142.56 
L 291.21 142.56 
L 292.090909 142.56 
L 292.090909 142.56 
L 292.971818 142.56 
L 292.971818 142.56 
L 293.852727 142.56 
L 293.852727 142.56 
L 294.733636 142.56 
L 294.733636 142.56 
L 295.614545 142.56 
L 295.614545 142.56 
L 296.495455 142.56 
L 296.495455 142.56 
L 297.376364 142.56 
L 297.376364 142.56 
L 298.257273 142.56 
L 298.257273 142.56 
L 299.138182 142.56 
L 299.138182 142.56 
L 300.019091 142.56 
L 300.019091 142.56 
L 300.9 142.56 
L 300.9 142.56 
L 301.780909 142.56 
L 301.780909 142.56 
L 302.661818 142.56 
L 302.661818 142.56 
L 303.542727 142.56 
L 303.542727 142.56 
L 304.423636 142.56 
L 304.423636 142.56 
L 305.304545 142.56 
L 305.304545 142.56 
z
" clip-path="url(#p45df380ee2)" style="fill: #9ca3af; opacity: 0.45; stroke: #9ca3af; stroke-width: 0.8; stroke-linejoin: miter"/>
   </g>
   <g id="matplotlib.axis_1">
    <g id="xtick_1">
     <g id="line2d_1">
      <defs>
       <path id="mb9e575782e" d="M 0 0 
L 0 3.5 
" style="stroke: #374151; stroke-width: 0.8"/>
      </defs>
      <g>
       <use xlink:href="#mb9e575782e" x="306.185455" y="142.56" style="fill: #374151; stroke: #374151; stroke-width: 0.8"/>
      </g>
     </g>
     <g id="line2d_2">
      <defs>
       <path id="m7c4d88db4b" d="M 0 0 
L 0 -3.5 
" style="stroke: #374151; stroke-width: 0.8"/>
      </defs>
      <g>
       <use xlink:href="#m7c4d88db4b" x="306.185455" y="116.182545" style="fill: #374151; stroke: #374151; stroke-width: 0.8"/>
      </g>
     </g>
     <g id="text_1">
      <text style="fill: #374151; font: 7px 'DejaVu Sans'; text-anchor: middle" x="306.185455" y="152.378906" transform="rotate(-0 306.185455 152.378906)">150</text>
     </g>
     <g id="text_2">
      <text style="fill: #374151; font: 7px 'DejaVu Sans'; text-anchor: middle" x="306.185455" y="110.226764" transform="rotate(-0 306.185455 110.226764)">150</text>
     </g>
    </g>
    <g id="xtick_2">
     <g id="line2d_3">
      <g>
       <use xlink:href="#mb9e575782e" x="235.712727" y="142.56" style="fill: #374151; stroke: #374151; stroke-width: 0.8"/>
      </g>
     </g>
     <g id="line2d_4">
      <g>
       <use xlink:href="#m7c4d88db4b" x="235.712727" y="116.182545" style="fill: #374151; stroke: #374151; stroke-width: 0.8"/>
      </g>
     </g>
     <g id="text_3">
      <text style="fill: #374151; font: 7px 'DejaVu Sans'; text-anchor: middle" x="235.712727" y="152.378906" transform="rotate(-0 235.712727 152.378906)">160</text>
     </g>
     <g id="text_4">
      <text style="fill: #374151; font: 7px 'DejaVu Sans'; text-anchor: middle" x="235.712727" y="110.226764" transform="rotate(-0 235.712727 110.226764)">160</text>
     </g>
    </g>
    <g id="xtick_3">
     <g id="line2d_5">
      <g>
       <use xlink:href="#mb9e575782e" x="165.24" y="142.56" style="fill: #374151; stroke: #374151; stroke-width: 0.8"/>
      </g>
     </g>
     <g id="line2d_6">
      <g>
       <use xlink:href="#m7c4d88db4b" x="165.24" y="116.182545" style="fill: #374151; stroke: #374151; stroke-width: 0.8"/>
      </g>
     </g>
     <g id="text_5">
      <text style="fill: #374151; font: 7px 'DejaVu Sans'; text-anchor: middle" x="165.24" y="152.378906" transform="rotate(-0 165.24 152.378906)">170</text>
     </g>
     <g id="text_6">
      <text style="fill: #374151; font: 7px 'DejaVu Sans'; text-anchor: middle" x="165.24" y="110.226764" transform="rotate(-0 165.24 110.226764)">170</text>
     </g>
    </g>
    <g id="xtick_4">
     <g id="line2d_7">
      <defs>
       <path id="me7c26ebe09" d="M 0 0 
L 0 2 
" style="stroke: #374151; stroke-width: 0.5"/>
      </defs>
      <g>
       <use xlink:href="#me7c26ebe09" x="299.138182" y="142.56" style="fill: #374151; stroke: #374151; stroke-width: 0.5"/>
      </g>
     </g>
    </g>
    <g id="xtick_5">
     <g id="line2d_8">
      <g>
       <use xlink:href="#me7c26ebe09" x="292.090909" y="142.56" style="fill: #374151; stroke: #374151; stroke-width: 0.5"/>
      </g>
     </g>
    </g>
    <g id="xtick_6">
     <g id="line2d_9">
      <g>
       <use xlink:href="#me7c26ebe09" x="285.043636" y="142.56" style="fill: #374151; stroke: #374151; stroke-width: 0.5"/>
      </g>
     </g>
    </g>
    <g id="xtick_7">
     <g id="line2d_10">
      <g>
       <use xlink:href="#me7c26ebe09" x="277.996364" y="142.56" style="fill: #374151; stroke: #374151; stroke-width: 0.5"/>
      </g>
     </g>
    </g>
    <g id="xtick_8">
     <g id="line2d_11">
      <g>
       <use xlink:href="#me7c26ebe09" x="270.949091" y="142.56" style="fill: #374151; stroke: #374151; stroke-width: 0.5"/>
      </g>
     </g>
    </g>
    <g id="xtick_9">
     <g id="line2d_12">
      <g>
       <use xlink:href="#me7c26ebe09" x="263.901818" y="142.56" style="fill: #374151; stroke: #374151; stroke-width: 0.5"/>
      </g>
     </g>
    </g>
    <g id="xtick_10">
     <g id="line2d_13">
      <g>
       <use xlink:href="#me7c26ebe09" x="256.854545" y="142.56" style="fill: #374151; stroke: #374151; stroke-width: 0.5"/>
      </g>
     </g>
    </g>
    <g id="xtick_11">
     <g id="line2d_14">
      <g>
       <use xlink:href="#me7c26ebe09" x="249.807273" y="142.56" style="fill: #374151; stroke: #374151; stroke-width: 0.5"/>
      </g>
     </g>
    </g>
    <g id="xtick_12">
     <g id="line2d_15">
      <g>
       <use xlink:href="#me7c26ebe09" x="242.76" y="142.56" style="fill: #374151; stroke: #374151; stroke-width: 0.5"/>
      </g>
     </g>
    </g>
    <g id="xtick_13">
     <g id="line2d_16">
      <g>
       <use xlink:href="#me7c26ebe09" x="228.665455" y="142.56" style="fill: #374151; stroke: #374151; stroke-width: 0.5"/>
      </g>
     </g>
    </g>
    <g id="xtick_14">
     <g id="line2d_17">
      <g>
       <use xlink:href="#me7c26ebe09" x="221.618182" y="142.56" style="fill: #374151; stroke: #374151; stroke-width: 0.5"/>
      </g>
     </g>
    </g>
    <g id="xtick_15">
     <g id="line2d_18">
      <g>
       <use xlink:href="#me7c26ebe09" x="214.570909" y="142.56" style="fill: #374151; stroke: #374151; stroke-width: 0.5"/>
      </g>
     </g>
    </g>
    <g id="xtick_16">
     <g id="line2d_19">
      <g>
       <use xlink:href="#me7c26ebe09" x="207.523636" y="142.56" style="fill: #374151; stroke: #374151; stroke-width: 0.5"/>
      </g>
     </g>
    </g>
    <g id="xtick_17">
     <g id="line2d_20">
      <g>
       <use xlink:href="#me7c26ebe09" x="200.476364" y="142.56" style="fill: #374151; stroke: #374151; stroke-width: 0.5"/>
      </g>
     </g>
    </g>
    <g id="xtick_18">
     <g id="line2d_21">
      <g>
       <use xlink:href="#me7c26ebe09" x="193.429091" y="142.56" style="fill: #374151; stroke: #374151; stroke-width: 0.5"/>
      </g>
     </g>
    </g>
    <g id="xtick_19">
     <g id="line2d_22">
      <g>
       <use xlink:href="#me7c26ebe09" x="186.381818" y="142.56" style="fill: #374151; stroke: #374151; stroke-width: 0.5"/>
      </g>
     </g>
    </g>
    <g id="xtick_20">
     <g id="line2d_23">
      <g>
       <use xlink:href="#me7c26ebe09" x="179.334545" y="142.56" style="fill: #374151; stroke: #374151; stroke-width: 0.5"/>
      </g>
     </g>
    </g>
    <g id="xtick_21">
     <g id="line2d_24">
      <g>
       <use xlink:href="#me7c26ebe09" x="172.287273" y="142.56" style="fill: #374151; stroke: #374151; stroke-width: 0.5"/>
      </g>
     </g>
    </g>
    <g id="text_7">
     <text style="fill: #374151; font: 9px 'DejaVu Sans'; text-anchor: middle" x="235.712727" y="164.673281" transform="rotate(-0 235.712727 164.673281)">Carbon Chemical Shift (ppm)</text>
    </g>
   </g>
   <g id="matplotlib.axis_2">
    <g id="ytick_1"/>
    <g id="ytick_2"/>
   </g>
   <g id="patch_4">
    <path d="M 165.24 142.56 
L 165.24 116.182545 
" style="fill: none; stroke: #374151; stroke-width: 0.8; stroke-linejoin: miter; stroke-linecap: square"/>
   </g>
   <g id="patch_5">
    <path d="M 306.185455 142.56 
L 306.185455 116.182545 
" style="fill: none; stroke: #374151; stroke-width: 0.8; stroke-linejoin: miter; stroke-linecap: square"/>
   </g>
   <g id="patch_6">
    <path d="M 165.24 142.56 
L 306.185455 142.56 
" style="fill: none; stroke: #374151; stroke-width: 0.8; stroke-linejoin: miter; stroke-linecap: square"/>
   </g>
   <g id="patch_7">
    <path d="M 165.24 116.182545 
L 306.185455 116.182545 
" style="fill: none; stroke: #374151; stroke-width: 0.8; stroke-linejoin: miter; stroke-linecap: square"/>
   </g>
   <g id="text_8">
    <text style="fill: #111827; font: 600 8.2px 'DejaVu Serif'; text-anchor: end" x="142.688727" y="131.63396" transform="rotate(-0 142.688727 131.63396)">ARG CZ</text>
   </g>
  </g>
  <g id="text_9">
   <text style="fill: #111827; font: 600 12.5px 'DejaVu Serif'; text-anchor: middle" x="306" y="37.218047" transform="rotate(-0 306 37.218047)">Arginine CZ chemical shifts from BMRB</text>
  </g>
  <g id="legend_1">
   <g id="line2d_25">
    <path d="M 270.39875 65.91875 
L 278.39875 65.91875 
L 286.39875 65.91875 
" style="fill: none; stroke: #9ca3af; stroke-opacity: 0.45; stroke-width: 6; stroke-linecap: square"/>
   </g>
   <g id="text_10">
    <text style="font: 8px 'DejaVu Sans'; text-anchor: start" x="292.79875" y="68.71875" transform="rotate(-0 292.79875 68.71875)">ARG/TRP CZ</text>
   </g>
  </g>
 </g>
 <defs>
  <clipPath id="p45df380ee2">
   <rect x="165.24" y="116.182545" width="140.945455" height="26.377455"/>
  </clipPath>
 </defs>
</svg>
