<?xml version="1.0" encoding="utf-8" standalone="no"?>
<!DOCTYPE svg PUBLIC "-//W3C//DTD SVG 1.1//EN"
  "http://www.w3.org/Graphics/SVG/1.1/DTD/svg11.dtd">
<svg xmlns:xlink="http://www.w3.org/1999/xlink" width="612pt" height="792pt" viewBox="0 0 612 792" xmlns="http://www.w3.org/2000/svg" version="1.1">
 <metadata>
  <rdf:RDF xmlns:dc="http://purl.org/dc/elements/1.1/" xmlns:cc="http://creativecommons.org/ns#" xmlns:rdf="http://www.w3.org/1999/02/22-rdf-syntax-ns#">
   <cc:Work>
    <dc:type rdf:resource="http://purl.org/dc/dcmitype/StillImage"/>
    <dc:date>2026-03-31T16:29:42.177852</dc:date>
    <dc:format>image/svg+xml</dc:format>
    <dc:creator>
     <cc:Agent>
      <dc:title>Matplotlib v3.9.1, https://matplotlib.org/</dc:title>
     </cc:Agent>
    </dc:creator>
   </cc:Work>
  </rdf:RDF>
 </metadata>
 <defs>
  <style type="text/css">*{stroke-linejoin: round; stroke-linecap: butt}</style>
 </defs>
 <g id="figure_1">
  <g id="patch_1">
   <path d="M 0 792 
L 612 792 
L 612 0 
L 0 0 
z
" style="fill: #ffffff"/>
  </g>
  <g id="axes_1">
   <g id="patch_2">
    <path d="M 214.2 142.56 
L 397.8 142.56 
L 397.8 118.404 
L 214.2 118.404 
z
" style="fill: #ffffff"/>
   </g>
   <g id="patch_3">
    <path d="M 397.8 142.56 
L 397.8 142.56 
L 397.093846 142.56 
L 397.093846 142.56 
L 396.387692 142.56 
L 396.387692 141.883361 
L 395.681538 141.883361 
L 395.681538 140.530084 
L 394.975385 140.530084 
L 394.975385 142.56 
L 394.269231 142.56 
L 394.269231 142.56 
L 393.563077 142.56 
L 393.563077 141.883361 
L 392.856923 141.883361 
L 392.856923 139.176807 
L 392.150769 139.176807 
L 392.150769 141.883361 
L 391.444615 141.883361 
L 391.444615 139.853445 
L 390.738462 139.853445 
L 390.738462 141.206723 
L 390.032308 141.206723 
L 390.032308 137.146891 
L 389.326154 137.146891 
L 389.326154 139.176807 
L 388.62 139.176807 
L 388.62 137.823529 
L 387.913846 137.823529 
L 387.913846 140.530084 
L 387.207692 140.530084 
L 387.207692 133.087059 
L 386.501538 133.087059 
L 386.501538 135.116975 
L 385.795385 135.116975 
L 385.795385 131.057143 
L 385.089231 131.057143 
L 385.089231 134.440336 
L 384.383077 134.440336 
L 384.383077 135.793613 
L 383.676923 135.793613 
L 383.676923 137.146891 
L 382.970769 137.146891 
L 382.970769 133.087059 
L 382.264615 133.087059 
L 382.264615 131.057143 
L 381.558462 131.057143 
L 381.558462 131.057143 
L 380.852308 131.057143 
L 380.852308 131.057143 
L 380.146154 131.057143 
L 380.146154 123.614118 
L 379.44 123.614118 
L 379.44 119.554286 
L 378.733846 119.554286 
L 378.733846 126.320672 
L 378.027692 126.320672 
L 378.027692 122.26084 
L 377.321538 122.26084 
L 377.321538 126.320672 
L 376.615385 126.320672 
L 376.615385 126.320672 
L 375.909231 126.320672 
L 375.909231 129.703866 
L 375.203077 129.703866 
L 375.203077 126.997311 
L 374.496923 126.997311 
L 374.496923 127.67395 
L 373.790769 127.67395 
L 373.790769 130.380504 
L 373.084615 130.380504 
L 373.084615 125.644034 
L 372.378462 125.644034 
L 372.378462 131.733782 
L 371.672308 131.733782 
L 371.672308 138.500168 
L 370.966154 138.500168 
L 370.966154 139.176807 
L 370.26 139.176807 
L 370.26 138.500168 
L 369.553846 138.500168 
L 369.553846 137.823529 
L 368.847692 137.823529 
L 368.847692 135.793613 
L 368.141538 135.793613 
L 368.141538 138.500168 
L 367.435385 138.500168 
L 367.435385 136.470252 
L 366.729231 136.470252 
L 366.729231 140.530084 
L 366.023077 140.530084 
L 366.023077 141.206723 
L 365.316923 141.206723 
L 365.316923 139.853445 
L 364.610769 139.853445 
L 364.610769 137.146891 
L 363.904615 137.146891 
L 363.904615 138.500168 
L 363.198462 138.500168 
L 363.198462 137.823529 
L 362.492308 137.823529 
L 362.492308 141.206723 
L 361.786154 141.206723 
L 361.786154 139.176807 
L 361.08 139.176807 
L 361.08 137.823529 
L 360.373846 137.823529 
L 360.373846 141.206723 
L 359.667692 141.206723 
L 359.667692 139.853445 
L 358.961538 139.853445 
L 358.961538 139.176807 
L 358.255385 139.176807 
L 358.255385 140.530084 
L 357.549231 140.530084 
L 357.549231 139.853445 
L 356.843077 139.853445 
L 356.843077 139.853445 
L 356.136923 139.853445 
L 356.136923 140.530084 
L 355.430769 140.530084 
L 355.430769 141.206723 
L 354.724615 141.206723 
L 354.724615 141.206723 
L 354.018462 141.206723 
L 354.018462 138.500168 
L 353.312308 138.500168 
L 353.312308 138.500168 
L 352.606154 138.500168 
L 352.606154 140.530084 
L 351.9 140.530084 
L 351.9 133.087059 
L 351.193846 133.087059 
L 351.193846 135.116975 
L 350.487692 135.116975 
L 350.487692 135.116975 
L 349.781538 135.116975 
L 349.781538 137.823529 
L 349.075385 137.823529 
L 349.075385 133.763697 
L 348.369231 133.763697 
L 348.369231 133.763697 
L 347.663077 133.763697 
L 347.663077 140.530084 
L 346.956923 140.530084 
L 346.956923 139.176807 
L 346.250769 139.176807 
L 346.250769 140.530084 
L 345.544615 140.530084 
L 345.544615 142.56 
L 344.838462 142.56 
L 344.838462 139.176807 
L 344.132308 139.176807 
L 344.132308 138.500168 
L 343.426154 138.500168 
L 343.426154 139.176807 
L 342.72 139.176807 
L 342.72 138.500168 
L 342.013846 138.500168 
L 342.013846 139.176807 
L 341.307692 139.176807 
L 341.307692 141.883361 
L 340.601538 141.883361 
L 340.601538 141.883361 
L 339.895385 141.883361 
L 339.895385 140.530084 
L 339.189231 140.530084 
L 339.189231 140.530084 
L 338.483077 140.530084 
L 338.483077 141.883361 
L 337.776923 141.883361 
L 337.776923 139.853445 
L 337.070769 139.853445 
L 337.070769 137.146891 
L 336.364615 137.146891 
L 336.364615 137.146891 
L 335.658462 137.146891 
L 335.658462 140.530084 
L 334.952308 140.530084 
L 334.952308 137.823529 
L 334.246154 137.823529 
L 334.246154 136.470252 
L 333.54 136.470252 
L 333.54 141.206723 
L 332.833846 141.206723 
L 332.833846 139.853445 
L 332.127692 139.853445 
L 332.127692 137.146891 
L 331.421538 137.146891 
L 331.421538 135.116975 
L 330.715385 135.116975 
L 330.715385 139.176807 
L 330.009231 139.176807 
L 330.009231 141.206723 
L 329.303077 141.206723 
L 329.303077 141.206723 
L 328.596923 141.206723 
L 328.596923 141.883361 
L 327.890769 141.883361 
L 327.890769 139.176807 
L 327.184615 139.176807 
L 327.184615 141.883361 
L 326.478462 141.883361 
L 326.478462 141.206723 
L 325.772308 141.206723 
L 325.772308 141.883361 
L 325.066154 141.883361 
L 325.066154 141.206723 
L 324.36 141.206723 
L 324.36 141.883361 
L 323.653846 141.883361 
L 323.653846 139.176807 
L 322.947692 139.176807 
L 322.947692 141.206723 
L 322.241538 141.206723 
L 322.241538 141.883361 
L 321.535385 141.883361 
L 321.535385 141.883361 
L 320.829231 141.883361 
L 320.829231 141.206723 
L 320.123077 141.206723 
L 320.123077 139.853445 
L 319.416923 139.853445 
L 319.416923 141.883361 
L 318.710769 141.883361 
L 318.710769 141.883361 
L 318.004615 141.883361 
L 318.004615 139.176807 
L 317.298462 139.176807 
L 317.298462 139.176807 
L 316.592308 139.176807 
L 316.592308 137.823529 
L 315.886154 137.823529 
L 315.886154 139.853445 
L 315.18 139.853445 
L 315.18 141.206723 
L 314.473846 141.206723 
L 314.473846 141.206723 
L 313.767692 141.206723 
L 313.767692 141.883361 
L 313.061538 141.883361 
L 313.061538 141.206723 
L 312.355385 141.206723 
L 312.355385 140.530084 
L 311.649231 140.530084 
L 311.649231 142.56 
L 310.943077 142.56 
L 310.943077 139.853445 
L 310.236923 139.853445 
L 310.236923 141.206723 
L 309.530769 141.206723 
L 309.530769 137.823529 
L 308.824615 137.823529 
L 308.824615 140.530084 
L 308.118462 140.530084 
L 308.118462 141.883361 
L 307.412308 141.883361 
L 307.412308 141.206723 
L 306.706154 141.206723 
L 306.706154 141.883361 
L 306 141.883361 
L 306 141.883361 
L 305.293846 141.883361 
L 305.293846 141.883361 
L 304.587692 141.883361 
L 304.587692 141.206723 
L 303.881538 141.206723 
L 303.881538 141.206723 
L 303.175385 141.206723 
L 303.175385 141.883361 
L 302.469231 141.883361 
L 302.469231 142.56 
L 301.763077 142.56 
L 301.763077 139.853445 
L 301.056923 139.853445 
L 301.056923 141.206723 
L 300.350769 141.206723 
L 300.350769 139.176807 
L 299.644615 139.176807 
L 299.644615 140.530084 
L 298.938462 140.530084 
L 298.938462 139.853445 
L 298.232308 139.853445 
L 298.232308 139.853445 
L 297.526154 139.853445 
L 297.526154 141.883361 
L 296.82 141.883361 
L 296.82 133.087059 
L 296.113846 133.087059 
L 296.113846 140.530084 
L 295.407692 140.530084 
L 295.407692 141.206723 
L 294.701538 141.206723 
L 294.701538 139.853445 
L 293.995385 139.853445 
L 293.995385 137.146891 
L 293.289231 137.146891 
L 293.289231 142.56 
L 292.583077 142.56 
L 292.583077 139.176807 
L 291.876923 139.176807 
L 291.876923 142.56 
L 291.170769 142.56 
L 291.170769 141.206723 
L 290.464615 141.206723 
L 290.464615 140.530084 
L 289.758462 140.530084 
L 289.758462 141.206723 
L 289.052308 141.206723 
L 289.052308 139.853445 
L 288.346154 139.853445 
L 288.346154 141.206723 
L 287.64 141.206723 
L 287.64 140.530084 
L 286.933846 140.530084 
L 286.933846 141.206723 
L 286.227692 141.206723 
L 286.227692 141.883361 
L 285.521538 141.883361 
L 285.521538 139.176807 
L 284.815385 139.176807 
L 284.815385 141.206723 
L 284.109231 141.206723 
L 284.109231 140.530084 
L 283.403077 140.530084 
L 283.403077 140.530084 
L 282.696923 140.530084 
L 282.696923 141.883361 
L 281.990769 141.883361 
L 281.990769 141.206723 
L 281.284615 141.206723 
L 281.284615 142.56 
L 280.578462 142.56 
L 280.578462 141.883361 
L 279.872308 141.883361 
L 279.872308 142.56 
L 279.166154 142.56 
L 279.166154 139.853445 
L 278.46 139.853445 
L 278.46 141.883361 
L 277.753846 141.883361 
L 277.753846 142.56 
L 277.047692 142.56 
L 277.047692 141.883361 
L 276.341538 141.883361 
L 276.341538 139.853445 
L 275.635385 139.853445 
L 275.635385 142.56 
L 274.929231 142.56 
L 274.929231 140.530084 
L 274.223077 140.530084 
L 274.223077 141.206723 
L 273.516923 141.206723 
L 273.516923 141.206723 
L 272.810769 141.206723 
L 272.810769 139.176807 
L 272.104615 139.176807 
L 272.104615 139.853445 
L 271.398462 139.853445 
L 271.398462 141.883361 
L 270.692308 141.883361 
L 270.692308 140.530084 
L 269.986154 140.530084 
L 269.986154 142.56 
L 269.28 142.56 
L 269.28 141.206723 
L 268.573846 141.206723 
L 268.573846 140.530084 
L 267.867692 140.530084 
L 267.867692 141.883361 
L 267.161538 141.883361 
L 267.161538 141.883361 
L 266.455385 141.883361 
L 266.455385 141.883361 
L 265.749231 141.883361 
L 265.749231 141.883361 
L 265.043077 141.883361 
L 265.043077 142.56 
L 264.336923 142.56 
L 264.336923 141.883361 
L 263.630769 141.883361 
L 263.630769 141.206723 
L 262.924615 141.206723 
L 262.924615 142.56 
L 262.218462 142.56 
L 262.218462 142.56 
L 261.512308 142.56 
L 261.512308 140.530084 
L 260.806154 140.530084 
L 260.806154 141.883361 
L 260.1 141.883361 
L 260.1 142.56 
L 259.393846 142.56 
L 259.393846 141.883361 
L 258.687692 141.883361 
L 258.687692 142.56 
L 257.981538 142.56 
L 257.981538 142.56 
L 257.275385 142.56 
L 257.275385 142.56 
L 256.569231 142.56 
L 256.569231 142.56 
L 255.863077 142.56 
L 255.863077 142.56 
L 255.156923 142.56 
L 255.156923 141.883361 
L 254.450769 141.883361 
L 254.450769 142.56 
L 253.744615 142.56 
L 253.744615 141.883361 
L 253.038462 141.883361 
L 253.038462 142.56 
L 252.332308 142.56 
L 252.332308 142.56 
L 251.626154 142.56 
L 251.626154 142.56 
L 250.92 142.56 
L 250.92 142.56 
L 250.213846 142.56 
L 250.213846 142.56 
L 249.507692 142.56 
L 249.507692 142.56 
L 248.801538 142.56 
L 248.801538 142.56 
L 248.095385 142.56 
L 248.095385 142.56 
L 247.389231 142.56 
L 247.389231 142.56 
L 246.683077 142.56 
L 246.683077 142.56 
L 245.976923 142.56 
L 245.976923 142.56 
L 245.270769 142.56 
L 245.270769 142.56 
L 244.564615 142.56 
L 244.564615 142.56 
L 243.858462 142.56 
L 243.858462 142.56 
L 243.152308 142.56 
L 243.152308 141.883361 
L 242.446154 141.883361 
L 242.446154 142.56 
L 241.74 142.56 
L 241.74 142.56 
L 241.033846 142.56 
L 241.033846 142.56 
L 240.327692 142.56 
L 240.327692 142.56 
L 239.621538 142.56 
L 239.621538 142.56 
L 238.915385 142.56 
L 238.915385 142.56 
L 238.209231 142.56 
L 238.209231 142.56 
L 237.503077 142.56 
L 237.503077 142.56 
L 236.796923 142.56 
L 236.796923 142.56 
L 236.090769 142.56 
L 236.090769 142.56 
L 235.384615 142.56 
L 235.384615 142.56 
L 234.678462 142.56 
L 234.678462 139.853445 
L 233.972308 139.853445 
L 233.972308 141.883361 
L 233.266154 141.883361 
L 233.266154 142.56 
L 232.56 142.56 
L 232.56 141.206723 
L 231.853846 141.206723 
L 231.853846 142.56 
L 231.147692 142.56 
L 231.147692 142.56 
L 230.441538 142.56 
L 230.441538 142.56 
L 229.735385 142.56 
L 229.735385 142.56 
L 229.029231 142.56 
L 229.029231 141.883361 
L 228.323077 141.883361 
L 228.323077 142.56 
L 227.616923 142.56 
L 227.616923 142.56 
L 226.910769 142.56 
L 226.910769 141.206723 
L 226.204615 141.206723 
L 226.204615 141.883361 
L 225.498462 141.883361 
L 225.498462 142.56 
L 224.792308 142.56 
L 224.792308 142.56 
L 224.086154 142.56 
L 224.086154 142.56 
L 223.38 142.56 
L 223.38 141.883361 
L 222.673846 141.883361 
L 222.673846 142.56 
L 221.967692 142.56 
L 221.967692 142.56 
L 221.261538 142.56 
L 221.261538 142.56 
L 220.555385 142.56 
L 220.555385 142.56 
L 219.849231 142.56 
L 219.849231 141.883361 
L 219.143077 141.883361 
L 219.143077 141.883361 
L 218.436923 141.883361 
L 218.436923 142.56 
L 217.730769 142.56 
L 217.730769 142.56 
L 217.024615 142.56 
L 217.024615 142.56 
L 216.318462 142.56 
L 216.318462 140.530084 
L 215.612308 140.530084 
L 215.612308 141.883361 
L 214.906154 141.883361 
L 214.906154 139.853445 
L 214.2 139.853445 
L 214.2 142.56 
L 214.906154 142.56 
L 214.906154 142.56 
L 215.612308 142.56 
L 215.612308 142.56 
L 216.318462 142.56 
L 216.318462 142.56 
L 217.024615 142.56 
L 217.024615 142.56 
L 217.730769 142.56 
L 217.730769 142.56 
L 218.436923 142.56 
L 218.436923 142.56 
L 219.143077 142.56 
L 219.143077 142.56 
L 219.849231 142.56 
L 219.849231 142.56 
L 220.555385 142.56 
L 220.555385 142.56 
L 221.261538 142.56 
L 221.261538 142.56 
L 221.967692 142.56 
L 221.967692 142.56 
L 222.673846 142.56 
L 222.673846 142.56 
L 223.38 142.56 
L 223.38 142.56 
L 224.086154 142.56 
L 224.086154 142.56 
L 224.792308 142.56 
L 224.792308 142.56 
L 225.498462 142.56 
L 225.498462 142.56 
L 226.204615 142.56 
L 226.204615 142.56 
L 226.910769 142.56 
L 226.910769 142.56 
L 227.616923 142.56 
L 227.616923 142.56 
L 228.323077 142.56 
L 228.323077 142.56 
L 229.029231 142.56 
L 229.029231 142.56 
L 229.735385 142.56 
L 229.735385 142.56 
L 230.441538 142.56 
L 230.441538 142.56 
L 231.147692 142.56 
L 231.147692 142.56 
L 231.853846 142.56 
L 231.853846 142.56 
L 232.56 142.56 
L 232.56 142.56 
L 233.266154 142.56 
L 233.266154 142.56 
L 233.972308 142.56 
L 233.972308 142.56 
L 234.678462 142.56 
L 234.678462 142.56 
L 235.384615 142.56 
L 235.384615 142.56 
L 236.090769 142.56 
L 236.090769 142.56 
L 236.796923 142.56 
L 236.796923 142.56 
L 237.503077 142.56 
L 237.503077 142.56 
L 238.209231 142.56 
L 238.209231 142.56 
L 238.915385 142.56 
L 238.915385 142.56 
L 239.621538 142.56 
L 239.621538 142.56 
L 240.327692 142.56 
L 240.327692 142.56 
L 241.033846 142.56 
L 241.033846 142.56 
L 241.74 142.56 
L 241.74 142.56 
L 242.446154 142.56 
L 242.446154 142.56 
L 243.152308 142.56 
L 243.152308 142.56 
L 243.858462 142.56 
L 243.858462 142.56 
L 244.564615 142.56 
L 244.564615 142.56 
L 245.270769 142.56 
L 245.270769 142.56 
L 245.976923 142.56 
L 245.976923 142.56 
L 246.683077 142.56 
L 246.683077 142.56 
L 247.389231 142.56 
L 247.389231 142.56 
L 248.095385 142.56 
L 248.095385 142.56 
L 248.801538 142.56 
L 248.801538 142.56 
L 249.507692 142.56 
L 249.507692 142.56 
L 250.213846 142.56 
L 250.213846 142.56 
L 250.92 142.56 
L 250.92 142.56 
L 251.626154 142.56 
L 251.626154 142.56 
L 252.332308 142.56 
L 252.332308 142.56 
L 253.038462 142.56 
L 253.038462 142.56 
L 253.744615 142.56 
L 253.744615 142.56 
L 254.450769 142.56 
L 254.450769 142.56 
L 255.156923 142.56 
L 255.156923 142.56 
L 255.863077 142.56 
L 255.863077 142.56 
L 256.569231 142.56 
L 256.569231 142.56 
L 257.275385 142.56 
L 257.275385 142.56 
L 257.981538 142.56 
L 257.981538 142.56 
L 258.687692 142.56 
L 258.687692 142.56 
L 259.393846 142.56 
L 259.393846 142.56 
L 260.1 142.56 
L 260.1 142.56 
L 260.806154 142.56 
L 260.806154 142.56 
L 261.512308 142.56 
L 261.512308 142.56 
L 262.218462 142.56 
L 262.218462 142.56 
L 262.924615 142.56 
L 262.924615 142.56 
L 263.630769 142.56 
L 263.630769 142.56 
L 264.336923 142.56 
L 264.336923 142.56 
L 265.043077 142.56 
L 265.043077 142.56 
L 265.749231 142.56 
L 265.749231 142.56 
L 266.455385 142.56 
L 266.455385 142.56 
L 267.161538 142.56 
L 267.161538 142.56 
L 267.867692 142.56 
L 267.867692 142.56 
L 268.573846 142.56 
L 268.573846 142.56 
L 269.28 142.56 
L 269.28 142.56 
L 269.986154 142.56 
L 269.986154 142.56 
L 270.692308 142.56 
L 270.692308 142.56 
L 271.398462 142.56 
L 271.398462 142.56 
L 272.104615 142.56 
L 272.104615 142.56 
L 272.810769 142.56 
L 272.810769 142.56 
L 273.516923 142.56 
L 273.516923 142.56 
L 274.223077 142.56 
L 274.223077 142.56 
L 274.929231 142.56 
L 274.929231 142.56 
L 275.635385 142.56 
L 275.635385 142.56 
L 276.341538 142.56 
L 276.341538 142.56 
L 277.047692 142.56 
L 277.047692 142.56 
L 277.753846 142.56 
L 277.753846 142.56 
L 278.46 142.56 
L 278.46 142.56 
L 279.166154 142.56 
L 279.166154 142.56 
L 279.872308 142.56 
L 279.872308 142.56 
L 280.578462 142.56 
L 280.578462 142.56 
L 281.284615 142.56 
L 281.284615 142.56 
L 281.990769 142.56 
L 281.990769 142.56 
L 282.696923 142.56 
L 282.696923 142.56 
L 283.403077 142.56 
L 283.403077 142.56 
L 284.109231 142.56 
L 284.109231 142.56 
L 284.815385 142.56 
L 284.815385 142.56 
L 285.521538 142.56 
L 285.521538 142.56 
L 286.227692 142.56 
L 286.227692 142.56 
L 286.933846 142.56 
L 286.933846 142.56 
L 287.64 142.56 
L 287.64 142.56 
L 288.346154 142.56 
L 288.346154 142.56 
L 289.052308 142.56 
L 289.052308 142.56 
L 289.758462 142.56 
L 289.758462 142.56 
L 290.464615 142.56 
L 290.464615 142.56 
L 291.170769 142.56 
L 291.170769 142.56 
L 291.876923 142.56 
L 291.876923 142.56 
L 292.583077 142.56 
L 292.583077 142.56 
L 293.289231 142.56 
L 293.289231 142.56 
L 293.995385 142.56 
L 293.995385 142.56 
L 294.701538 142.56 
L 294.701538 142.56 
L 295.407692 142.56 
L 295.407692 142.56 
L 296.113846 142.56 
L 296.113846 142.56 
L 296.82 142.56 
L 296.82 142.56 
L 297.526154 142.56 
L 297.526154 142.56 
L 298.232308 142.56 
L 298.232308 142.56 
L 298.938462 142.56 
L 298.938462 142.56 
L 299.644615 142.56 
L 299.644615 142.56 
L 300.350769 142.56 
L 300.350769 142.56 
L 301.056923 142.56 
L 301.056923 142.56 
L 301.763077 142.56 
L 301.763077 142.56 
L 302.469231 142.56 
L 302.469231 142.56 
L 303.175385 142.56 
L 303.175385 142.56 
L 303.881538 142.56 
L 303.881538 142.56 
L 304.587692 142.56 
L 304.587692 142.56 
L 305.293846 142.56 
L 305.293846 142.56 
L 306 142.56 
L 306 142.56 
L 306.706154 142.56 
L 306.706154 142.56 
L 307.412308 142.56 
L 307.412308 142.56 
L 308.118462 142.56 
L 308.118462 142.56 
L 308.824615 142.56 
L 308.824615 142.56 
L 309.530769 142.56 
L 309.530769 142.56 
L 310.236923 142.56 
L 310.236923 142.56 
L 310.943077 142.56 
L 310.943077 142.56 
L 311.649231 142.56 
L 311.649231 142.56 
L 312.355385 142.56 
L 312.355385 142.56 
L 313.061538 142.56 
L 313.061538 142.56 
L 313.767692 142.56 
L 313.767692 142.56 
L 314.473846 142.56 
L 314.473846 142.56 
L 315.18 142.56 
L 315.18 142.56 
L 315.886154 142.56 
L 315.886154 142.56 
L 316.592308 142.56 
L 316.592308 142.56 
L 317.298462 142.56 
L 317.298462 142.56 
L 318.004615 142.56 
L 318.004615 142.56 
L 318.710769 142.56 
L 318.710769 142.56 
L 319.416923 142.56 
L 319.416923 142.56 
L 320.123077 142.56 
L 320.123077 142.56 
L 320.829231 142.56 
L 320.829231 142.56 
L 321.535385 142.56 
L 321.535385 142.56 
L 322.241538 142.56 
L 322.241538 142.56 
L 322.947692 142.56 
L 322.947692 142.56 
L 323.653846 142.56 
L 323.653846 142.56 
L 324.36 142.56 
L 324.36 142.56 
L 325.066154 142.56 
L 325.066154 142.56 
L 325.772308 142.56 
L 325.772308 142.56 
L 326.478462 142.56 
L 326.478462 142.56 
L 327.184615 142.56 
L 327.184615 142.56 
L 327.890769 142.56 
L 327.890769 142.56 
L 328.596923 142.56 
L 328.596923 142.56 
L 329.303077 142.56 
L 329.303077 142.56 
L 330.009231 142.56 
L 330.009231 142.56 
L 330.715385 142.56 
L 330.715385 142.56 
L 331.421538 142.56 
L 331.421538 142.56 
L 332.127692 142.56 
L 332.127692 142.56 
L 332.833846 142.56 
L 332.833846 142.56 
L 333.54 142.56 
L 333.54 142.56 
L 334.246154 142.56 
L 334.246154 142.56 
L 334.952308 142.56 
L 334.952308 142.56 
L 335.658462 142.56 
L 335.658462 142.56 
L 336.364615 142.56 
L 336.364615 142.56 
L 337.070769 142.56 
L 337.070769 142.56 
L 337.776923 142.56 
L 337.776923 142.56 
L 338.483077 142.56 
L 338.483077 142.56 
L 339.189231 142.56 
L 339.189231 142.56 
L 339.895385 142.56 
L 339.895385 142.56 
L 340.601538 142.56 
L 340.601538 142.56 
L 341.307692 142.56 
L 341.307692 142.56 
L 342.013846 142.56 
L 342.013846 142.56 
L 342.72 142.56 
L 342.72 142.56 
L 343.426154 142.56 
L 343.426154 142.56 
L 344.132308 142.56 
L 344.132308 142.56 
L 344.838462 142.56 
L 344.838462 142.56 
L 345.544615 142.56 
L 345.544615 142.56 
L 346.250769 142.56 
L 346.250769 142.56 
L 346.956923 142.56 
L 346.956923 142.56 
L 347.663077 142.56 
L 347.663077 142.56 
L 348.369231 142.56 
L 348.369231 142.56 
L 349.075385 142.56 
L 349.075385 142.56 
L 349.781538 142.56 
L 349.781538 142.56 
L 350.487692 142.56 
L 350.487692 142.56 
L 351.193846 142.56 
L 351.193846 142.56 
L 351.9 142.56 
L 351.9 142.56 
L 352.606154 142.56 
L 352.606154 142.56 
L 353.312308 142.56 
L 353.312308 142.56 
L 354.018462 142.56 
L 354.018462 142.56 
L 354.724615 142.56 
L 354.724615 142.56 
L 355.430769 142.56 
L 355.430769 142.56 
L 356.136923 142.56 
L 356.136923 142.56 
L 356.843077 142.56 
L 356.843077 142.56 
L 357.549231 142.56 
L 357.549231 142.56 
L 358.255385 142.56 
L 358.255385 142.56 
L 358.961538 142.56 
L 358.961538 142.56 
L 359.667692 142.56 
L 359.667692 142.56 
L 360.373846 142.56 
L 360.373846 142.56 
L 361.08 142.56 
L 361.08 142.56 
L 361.786154 142.56 
L 361.786154 142.56 
L 362.492308 142.56 
L 362.492308 142.56 
L 363.198462 142.56 
L 363.198462 142.56 
L 363.904615 142.56 
L 363.904615 142.56 
L 364.610769 142.56 
L 364.610769 142.56 
L 365.316923 142.56 
L 365.316923 142.56 
L 366.023077 142.56 
L 366.023077 142.56 
L 366.729231 142.56 
L 366.729231 142.56 
L 367.435385 142.56 
L 367.435385 142.56 
L 368.141538 142.56 
L 368.141538 142.56 
L 368.847692 142.56 
L 368.847692 142.56 
L 369.553846 142.56 
L 369.553846 142.56 
L 370.26 142.56 
L 370.26 142.56 
L 370.966154 142.56 
L 370.966154 142.56 
L 371.672308 142.56 
L 371.672308 142.56 
L 372.378462 142.56 
L 372.378462 142.56 
L 373.084615 142.56 
L 373.084615 142.56 
L 373.790769 142.56 
L 373.790769 142.56 
L 374.496923 142.56 
L 374.496923 142.56 
L 375.203077 142.56 
L 375.203077 142.56 
L 375.909231 142.56 
L 375.909231 142.56 
L 376.615385 142.56 
L 376.615385 142.56 
L 377.321538 142.56 
L 377.321538 142.56 
L 378.027692 142.56 
L 378.027692 142.56 
L 378.733846 142.56 
L 378.733846 142.56 
L 379.44 142.56 
L 379.44 142.56 
L 380.146154 142.56 
L 380.146154 142.56 
L 380.852308 142.56 
L 380.852308 142.56 
L 381.558462 142.56 
L 381.558462 142.56 
L 382.264615 142.56 
L 382.264615 142.56 
L 382.970769 142.56 
L 382.970769 142.56 
L 383.676923 142.56 
L 383.676923 142.56 
L 384.383077 142.56 
L 384.383077 142.56 
L 385.089231 142.56 
L 385.089231 142.56 
L 385.795385 142.56 
L 385.795385 142.56 
L 386.501538 142.56 
L 386.501538 142.56 
L 387.207692 142.56 
L 387.207692 142.56 
L 387.913846 142.56 
L 387.913846 142.56 
L 388.62 142.56 
L 388.62 142.56 
L 389.326154 142.56 
L 389.326154 142.56 
L 390.032308 142.56 
L 390.032308 142.56 
L 390.738462 142.56 
L 390.738462 142.56 
L 391.444615 142.56 
L 391.444615 142.56 
L 392.150769 142.56 
L 392.150769 142.56 
L 392.856923 142.56 
L 392.856923 142.56 
L 393.563077 142.56 
L 393.563077 142.56 
L 394.269231 142.56 
L 394.269231 142.56 
L 394.975385 142.56 
L 394.975385 142.56 
L 395.681538 142.56 
L 395.681538 142.56 
L 396.387692 142.56 
L 396.387692 142.56 
L 397.093846 142.56 
L 397.093846 142.56 
z
" clip-path="url(#p0401487fb6)" style="fill: #a78bfa; opacity: 0.45; stroke: #a78bfa; stroke-width: 0.8; stroke-linejoin: miter"/>
   </g>
   <g id="matplotlib.axis_1">
    <g id="xtick_1">
     <g id="line2d_1">
      <defs>
       <path id="m3e65aab639" d="M 0 0 
L 0 3.5 
" style="stroke: #374151; stroke-width: 0.8"/>
      </defs>
      <g>
       <use xlink:href="#m3e65aab639" x="397.8" y="142.56" style="fill: #374151; stroke: #374151; stroke-width: 0.8"/>
      </g>
     </g>
     <g id="line2d_2">
      <defs>
       <path id="m3eadbc663d" d="M 0 0 
L 0 -3.5 
" style="stroke: #374151; stroke-width: 0.8"/>
      </defs>
      <g>
       <use xlink:href="#m3eadbc663d" x="397.8" y="118.404" style="fill: #374151; stroke: #374151; stroke-width: 0.8"/>
      </g>
     </g>
     <g id="text_1">
      <text style="fill: #374151; font: 7px 'DejaVu Sans'; text-anchor: middle" x="397.8" y="152.378906" transform="rotate(-0 397.8 152.378906)">6</text>
     </g>
     <g id="text_2">
      <text style="fill: #374151; font: 7px 'DejaVu Sans'; text-anchor: middle" x="397.8" y="112.448219" transform="rotate(-0 397.8 112.448219)">6</text>
     </g>
    </g>
    <g id="xtick_2">
     <g id="line2d_3">
      <g>
       <use xlink:href="#m3e65aab639" x="379.44" y="142.56" style="fill: #374151; stroke: #374151; stroke-width: 0.8"/>
      </g>
     </g>
     <g id="line2d_4">
      <g>
       <use xlink:href="#m3eadbc663d" x="379.44" y="118.404" style="fill: #374151; stroke: #374151; stroke-width: 0.8"/>
      </g>
     </g>
     <g id="text_3">
      <text style="fill: #374151; font: 7px 'DejaVu Sans'; text-anchor: middle" x="379.44" y="152.378906" transform="rotate(-0 379.44 152.378906)">7</text>
     </g>
     <g id="text_4">
      <text style="fill: #374151; font: 7px 'DejaVu Sans'; text-anchor: middle" x="379.44" y="112.448219" transform="rotate(-0 379.44 112.448219)">7</text>
     </g>
    </g>
    <g id="xtick_3">
     <g id="line2d_5">
      <g>
       <use xlink:href="#m3e65aab639" x="361.08" y="142.56" style="fill: #374151; stroke: #374151; stroke-width: 0.8"/>
      </g>
     </g>
     <g id="line2d_6">
      <g>
       <use xlink:href="#m3eadbc663d" x="361.08" y="118.404" style="fill: #374151; stroke: #374151; stroke-width: 0.8"/>
      </g>
     </g>
     <g id="text_5">
      <text style="fill: #374151; font: 7px 'DejaVu Sans'; text-anchor: middle" x="361.08" y="152.378906" transform="rotate(-0 361.08 152.378906)">8</text>
     </g>
     <g id="text_6">
      <text style="fill: #374151; font: 7px 'DejaVu Sans'; text-anchor: middle" x="361.08" y="112.448219" transform="rotate(-0 361.08 112.448219)">8</text>
     </g>
    </g>
    <g id="xtick_4">
     <g id="line2d_7">
      <g>
       <use xlink:href="#m3e65aab639" x="342.72" y="142.56" style="fill: #374151; stroke: #374151; stroke-width: 0.8"/>
      </g>
     </g>
     <g id="line2d_8">
      <g>
       <use xlink:href="#m3eadbc663d" x="342.72" y="118.404" style="fill: #374151; stroke: #374151; stroke-width: 0.8"/>
      </g>
     </g>
     <g id="text_7">
      <text style="fill: #374151; font: 7px 'DejaVu Sans'; text-anchor: middle" x="342.72" y="152.378906" transform="rotate(-0 342.72 152.378906)">9</text>
     </g>
     <g id="text_8">
      <text style="fill: #374151; font: 7px 'DejaVu Sans'; text-anchor: middle" x="342.72" y="112.448219" transform="rotate(-0 342.72 112.448219)">9</text>
     </g>
    </g>
    <g id="xtick_5">
     <g id="line2d_9">
      <g>
       <use xlink:href="#m3e65aab639" x="324.36" y="142.56" style="fill: #374151; stroke: #374151; stroke-width: 0.8"/>
      </g>
     </g>
     <g id="line2d_10">
      <g>
       <use xlink:href="#m3eadbc663d" x="324.36" y="118.404" style="fill: #374151; stroke: #374151; stroke-width: 0.8"/>
      </g>
     </g>
     <g id="text_9">
      <text style="fill: #374151; font: 7px 'DejaVu Sans'; text-anchor: middle" x="324.36" y="152.378906" transform="rotate(-0 324.36 152.378906)">10</text>
     </g>
     <g id="text_10">
      <text style="fill: #374151; font: 7px 'DejaVu Sans'; text-anchor: middle" x="324.36" y="112.448219" transform="rotate(-0 324.36 112.448219)">10</text>
     </g>
    </g>
    <g id="xtick_6">
     <g id="line2d_11">
      <g>
       <use xlink:href="#m3e65aab639" x="306" y="142.56" style="fill: #374151; stroke: #374151; stroke-width: 0.8"/>
      </g>
     </g>
     <g id="line2d_12">
      <g>
       <use xlink:href="#m3eadbc663d" x="306" y="118.404" style="fill: #374151; stroke: #374151; stroke-width: 0.8"/>
      </g>
     </g>
     <g id="text_11">
      <text style="fill: #374151; font: 7px 'DejaVu Sans'; text-anchor: middle" x="306" y="152.378906" transform="rotate(-0 306 152.378906)">11</text>
     </g>
     <g id="text_12">
      <text style="fill: #374151; font: 7px 'DejaVu Sans'; text-anchor: middle" x="306" y="112.448219" transform="rotate(-0 306 112.448219)">11</text>
     </g>
    </g>
    <g id="xtick_7">
     <g id="line2d_13">
      <g>
       <use xlink:href="#m3e65aab639" x="287.64" y="142.56" style="fill: #374151; stroke: #374151; stroke-width: 0.8"/>
      </g>
     </g>
     <g id="line2d_14">
      <g>
       <use xlink:href="#m3eadbc663d" x="287.64" y="118.404" style="fill: #374151; stroke: #374151; stroke-width: 0.8"/>
      </g>
     </g>
     <g id="text_13">
      <text style="fill: #374151; font: 7px 'DejaVu Sans'; text-anchor: middle" x="287.64" y="152.378906" transform="rotate(-0 287.64 152.378906)">12</text>
     </g>
     <g id="text_14">
      <text style="fill: #374151; font: 7px 'DejaVu Sans'; text-anchor: middle" x="287.64" y="112.448219" transform="rotate(-0 287.64 112.448219)">12</text>
     </g>
    </g>
    <g id="xtick_8">
     <g id="line2d_15">
      <g>
       <use xlink:href="#m3e65aab639" x="269.28" y="142.56" style="fill: #374151; stroke: #374151; stroke-width: 0.8"/>
      </g>
     </g>
     <g id="line2d_16">
      <g>
       <use xlink:href="#m3eadbc663d" x="269.28" y="118.404" style="fill: #374151; stroke: #374151; stroke-width: 0.8"/>
      </g>
     </g>
     <g id="text_15">
      <text style="fill: #374151; font: 7px 'DejaVu Sans'; text-anchor: middle" x="269.28" y="152.378906" transform="rotate(-0 269.28 152.378906)">13</text>
     </g>
     <g id="text_16">
      <text style="fill: #374151; font: 7px 'DejaVu Sans'; text-anchor: middle" x="269.28" y="112.448219" transform="rotate(-0 269.28 112.448219)">13</text>
     </g>
    </g>
    <g id="xtick_9">
     <g id="line2d_17">
      <g>
       <use xlink:href="#m3e65aab639" x="250.92" y="142.56" style="fill: #374151; stroke: #374151; stroke-width: 0.8"/>
      </g>
     </g>
     <g id="line2d_18">
      <g>
       <use xlink:href="#m3eadbc663d" x="250.92" y="118.404" style="fill: #374151; stroke: #374151; stroke-width: 0.8"/>
      </g>
     </g>
     <g id="text_17">
      <text style="fill: #374151; font: 7px 'DejaVu Sans'; text-anchor: middle" x="250.92" y="152.378906" transform="rotate(-0 250.92 152.378906)">14</text>
     </g>
     <g id="text_18">
      <text style="fill: #374151; font: 7px 'DejaVu Sans'; text-anchor: middle" x="250.92" y="112.448219" transform="rotate(-0 250.92 112.448219)">14</text>
     </g>
    </g>
    <g id="xtick_10">
     <g id="line2d_19">
      <g>
       <use xlink:href="#m3e65aab639" x="232.56" y="142.56" style="fill: #374151; stroke: #374151; stroke-width: 0.8"/>
      </g>
     </g>
     <g id="line2d_20">
      <g>
       <use xlink:href="#m3eadbc663d" x="232.56" y="118.404" style="fill: #374151; stroke: #374151; stroke-width: 0.8"/>
      </g>
     </g>
     <g id="text_19">
      <text style="fill: #374151; font: 7px 'DejaVu Sans'; text-anchor: middle" x="232.56" y="152.378906" transform="rotate(-0 232.56 152.378906)">15</text>
     </g>
     <g id="text_20">
      <text style="fill: #374151; font: 7px 'DejaVu Sans'; text-anchor: middle" x="232.56" y="112.448219" transform="rotate(-0 232.56 112.448219)">15</text>
     </g>
    </g>
    <g id="xtick_11">
     <g id="line2d_21">
      <g>
       <use xlink:href="#m3e65aab639" x="214.2" y="142.56" style="fill: #374151; stroke: #374151; stroke-width: 0.8"/>
      </g>
     </g>
     <g id="line2d_22">
      <g>
       <use xlink:href="#m3eadbc663d" x="214.2" y="118.404" style="fill: #374151; stroke: #374151; stroke-width: 0.8"/>
      </g>
     </g>
     <g id="text_21">
      <text style="fill: #374151; font: 7px 'DejaVu Sans'; text-anchor: middle" x="214.2" y="152.378906" transform="rotate(-0 214.2 152.378906)">16</text>
     </g>
     <g id="text_22">
      <text style="fill: #374151; font: 7px 'DejaVu Sans'; text-anchor: middle" x="214.2" y="112.448219" transform="rotate(-0 214.2 112.448219)">16</text>
     </g>
    </g>
    <g id="xtick_12">
     <g id="line2d_23">
      <defs>
       <path id="md86e51f744" d="M 0 0 
L 0 2 
" style="stroke: #374151; stroke-width: 0.5"/>
      </defs>
      <g>
       <use xlink:href="#md86e51f744" x="395.964" y="142.56" style="fill: #374151; stroke: #374151; stroke-width: 0.5"/>
      </g>
     </g>
    </g>
    <g id="xtick_13">
     <g id="line2d_24">
      <g>
       <use xlink:href="#md86e51f744" x="394.128" y="142.56" style="fill: #374151; stroke: #374151; stroke-width: 0.5"/>
      </g>
     </g>
    </g>
    <g id="xtick_14">
     <g id="line2d_25">
      <g>
       <use xlink:href="#md86e51f744" x="392.292" y="142.56" style="fill: #374151; stroke: #374151; stroke-width: 0.5"/>
      </g>
     </g>
    </g>
    <g id="xtick_15">
     <g id="line2d_26">
      <g>
       <use xlink:href="#md86e51f744" x="390.456" y="142.56" style="fill: #374151; stroke: #374151; stroke-width: 0.5"/>
      </g>
     </g>
    </g>
    <g id="xtick_16">
     <g id="line2d_27">
      <g>
       <use xlink:href="#md86e51f744" x="388.62" y="142.56" style="fill: #374151; stroke: #374151; stroke-width: 0.5"/>
      </g>
     </g>
    </g>
    <g id="xtick_17">
     <g id="line2d_28">
      <g>
       <use xlink:href="#md86e51f744" x="386.784" y="142.56" style="fill: #374151; stroke: #374151; stroke-width: 0.5"/>
      </g>
     </g>
    </g>
    <g id="xtick_18">
     <g id="line2d_29">
      <g>
       <use xlink:href="#md86e51f744" x="384.948" y="142.56" style="fill: #374151; stroke: #374151; stroke-width: 0.5"/>
      </g>
     </g>
    </g>
    <g id="xtick_19">
     <g id="line2d_30">
      <g>
       <use xlink:href="#md86e51f744" x="383.112" y="142.56" style="fill: #374151; stroke: #374151; stroke-width: 0.5"/>
      </g>
     </g>
    </g>
    <g id="xtick_20">
     <g id="line2d_31">
      <g>
       <use xlink:href="#md86e51f744" x="381.276" y="142.56" style="fill: #374151; stroke: #374151; stroke-width: 0.5"/>
      </g>
     </g>
    </g>
    <g id="xtick_21">
     <g id="line2d_32">
      <g>
       <use xlink:href="#md86e51f744" x="377.604" y="142.56" style="fill: #374151; stroke: #374151; stroke-width: 0.5"/>
      </g>
     </g>
    </g>
    <g id="xtick_22">
     <g id="line2d_33">
      <g>
       <use xlink:href="#md86e51f744" x="375.768" y="142.56" style="fill: #374151; stroke: #374151; stroke-width: 0.5"/>
      </g>
     </g>
    </g>
    <g id="xtick_23">
     <g id="line2d_34">
      <g>
       <use xlink:href="#md86e51f744" x="373.932" y="142.56" style="fill: #374151; stroke: #374151; stroke-width: 0.5"/>
      </g>
     </g>
    </g>
    <g id="xtick_24">
     <g id="line2d_35">
      <g>
       <use xlink:href="#md86e51f744" x="372.096" y="142.56" style="fill: #374151; stroke: #374151; stroke-width: 0.5"/>
      </g>
     </g>
    </g>
    <g id="xtick_25">
     <g id="line2d_36">
      <g>
       <use xlink:href="#md86e51f744" x="370.26" y="142.56" style="fill: #374151; stroke: #374151; stroke-width: 0.5"/>
      </g>
     </g>
    </g>
    <g id="xtick_26">
     <g id="line2d_37">
      <g>
       <use xlink:href="#md86e51f744" x="368.424" y="142.56" style="fill: #374151; stroke: #374151; stroke-width: 0.5"/>
      </g>
     </g>
    </g>
    <g id="xtick_27">
     <g id="line2d_38">
      <g>
       <use xlink:href="#md86e51f744" x="366.588" y="142.56" style="fill: #374151; stroke: #374151; stroke-width: 0.5"/>
      </g>
     </g>
    </g>
    <g id="xtick_28">
     <g id="line2d_39">
      <g>
       <use xlink:href="#md86e51f744" x="364.752" y="142.56" style="fill: #374151; stroke: #374151; stroke-width: 0.5"/>
      </g>
     </g>
    </g>
    <g id="xtick_29">
     <g id="line2d_40">
      <g>
       <use xlink:href="#md86e51f744" x="362.916" y="142.56" style="fill: #374151; stroke: #374151; stroke-width: 0.5"/>
      </g>
     </g>
    </g>
    <g id="xtick_30">
     <g id="line2d_41">
      <g>
       <use xlink:href="#md86e51f744" x="359.244" y="142.56" style="fill: #374151; stroke: #374151; stroke-width: 0.5"/>
      </g>
     </g>
    </g>
    <g id="xtick_31">
     <g id="line2d_42">
      <g>
       <use xlink:href="#md86e51f744" x="357.408" y="142.56" style="fill: #374151; stroke: #374151; stroke-width: 0.5"/>
      </g>
     </g>
    </g>
    <g id="xtick_32">
     <g id="line2d_43">
      <g>
       <use xlink:href="#md86e51f744" x="355.572" y="142.56" style="fill: #374151; stroke: #374151; stroke-width: 0.5"/>
      </g>
     </g>
    </g>
    <g id="xtick_33">
     <g id="line2d_44">
      <g>
       <use xlink:href="#md86e51f744" x="353.736" y="142.56" style="fill: #374151; stroke: #374151; stroke-width: 0.5"/>
      </g>
     </g>
    </g>
    <g id="xtick_34">
     <g id="line2d_45">
      <g>
       <use xlink:href="#md86e51f744" x="351.9" y="142.56" style="fill: #374151; stroke: #374151; stroke-width: 0.5"/>
      </g>
     </g>
    </g>
    <g id="xtick_35">
     <g id="line2d_46">
      <g>
       <use xlink:href="#md86e51f744" x="350.064" y="142.56" style="fill: #374151; stroke: #374151; stroke-width: 0.5"/>
      </g>
     </g>
    </g>
    <g id="xtick_36">
     <g id="line2d_47">
      <g>
       <use xlink:href="#md86e51f744" x="348.228" y="142.56" style="fill: #374151; stroke: #374151; stroke-width: 0.5"/>
      </g>
     </g>
    </g>
    <g id="xtick_37">
     <g id="line2d_48">
      <g>
       <use xlink:href="#md86e51f744" x="346.392" y="142.56" style="fill: #374151; stroke: #374151; stroke-width: 0.5"/>
      </g>
     </g>
    </g>
    <g id="xtick_38">
     <g id="line2d_49">
      <g>
       <use xlink:href="#md86e51f744" x="344.556" y="142.56" style="fill: #374151; stroke: #374151; stroke-width: 0.5"/>
      </g>
     </g>
    </g>
    <g id="xtick_39">
     <g id="line2d_50">
      <g>
       <use xlink:href="#md86e51f744" x="340.884" y="142.56" style="fill: #374151; stroke: #374151; stroke-width: 0.5"/>
      </g>
     </g>
    </g>
    <g id="xtick_40">
     <g id="line2d_51">
      <g>
       <use xlink:href="#md86e51f744" x="339.048" y="142.56" style="fill: #374151; stroke: #374151; stroke-width: 0.5"/>
      </g>
     </g>
    </g>
    <g id="xtick_41">
     <g id="line2d_52">
      <g>
       <use xlink:href="#md86e51f744" x="337.212" y="142.56" style="fill: #374151; stroke: #374151; stroke-width: 0.5"/>
      </g>
     </g>
    </g>
    <g id="xtick_42">
     <g id="line2d_53">
      <g>
       <use xlink:href="#md86e51f744" x="335.376" y="142.56" style="fill: #374151; stroke: #374151; stroke-width: 0.5"/>
      </g>
     </g>
    </g>
    <g id="xtick_43">
     <g id="line2d_54">
      <g>
       <use xlink:href="#md86e51f744" x="333.54" y="142.56" style="fill: #374151; stroke: #374151; stroke-width: 0.5"/>
      </g>
     </g>
    </g>
    <g id="xtick_44">
     <g id="line2d_55">
      <g>
       <use xlink:href="#md86e51f744" x="331.704" y="142.56" style="fill: #374151; stroke: #374151; stroke-width: 0.5"/>
      </g>
     </g>
    </g>
    <g id="xtick_45">
     <g id="line2d_56">
      <g>
       <use xlink:href="#md86e51f744" x="329.868" y="142.56" style="fill: #374151; stroke: #374151; stroke-width: 0.5"/>
      </g>
     </g>
    </g>
    <g id="xtick_46">
     <g id="line2d_57">
      <g>
       <use xlink:href="#md86e51f744" x="328.032" y="142.56" style="fill: #374151; stroke: #374151; stroke-width: 0.5"/>
      </g>
     </g>
    </g>
    <g id="xtick_47">
     <g id="line2d_58">
      <g>
       <use xlink:href="#md86e51f744" x="326.196" y="142.56" style="fill: #374151; stroke: #374151; stroke-width: 0.5"/>
      </g>
     </g>
    </g>
    <g id="xtick_48">
     <g id="line2d_59">
      <g>
       <use xlink:href="#md86e51f744" x="322.524" y="142.56" style="fill: #374151; stroke: #374151; stroke-width: 0.5"/>
      </g>
     </g>
    </g>
    <g id="xtick_49">
     <g id="line2d_60">
      <g>
       <use xlink:href="#md86e51f744" x="320.688" y="142.56" style="fill: #374151; stroke: #374151; stroke-width: 0.5"/>
      </g>
     </g>
    </g>
    <g id="xtick_50">
     <g id="line2d_61">
      <g>
       <use xlink:href="#md86e51f744" x="318.852" y="142.56" style="fill: #374151; stroke: #374151; stroke-width: 0.5"/>
      </g>
     </g>
    </g>
    <g id="xtick_51">
     <g id="line2d_62">
      <g>
       <use xlink:href="#md86e51f744" x="317.016" y="142.56" style="fill: #374151; stroke: #374151; stroke-width: 0.5"/>
      </g>
     </g>
    </g>
    <g id="xtick_52">
     <g id="line2d_63">
      <g>
       <use xlink:href="#md86e51f744" x="315.18" y="142.56" style="fill: #374151; stroke: #374151; stroke-width: 0.5"/>
      </g>
     </g>
    </g>
    <g id="xtick_53">
     <g id="line2d_64">
      <g>
       <use xlink:href="#md86e51f744" x="313.344" y="142.56" style="fill: #374151; stroke: #374151; stroke-width: 0.5"/>
      </g>
     </g>
    </g>
    <g id="xtick_54">
     <g id="line2d_65">
      <g>
       <use xlink:href="#md86e51f744" x="311.508" y="142.56" style="fill: #374151; stroke: #374151; stroke-width: 0.5"/>
      </g>
     </g>
    </g>
    <g id="xtick_55">
     <g id="line2d_66">
      <g>
       <use xlink:href="#md86e51f744" x="309.672" y="142.56" style="fill: #374151; stroke: #374151; stroke-width: 0.5"/>
      </g>
     </g>
    </g>
    <g id="xtick_56">
     <g id="line2d_67">
      <g>
       <use xlink:href="#md86e51f744" x="307.836" y="142.56" style="fill: #374151; stroke: #374151; stroke-width: 0.5"/>
      </g>
     </g>
    </g>
    <g id="xtick_57">
     <g id="line2d_68">
      <g>
       <use xlink:href="#md86e51f744" x="304.164" y="142.56" style="fill: #374151; stroke: #374151; stroke-width: 0.5"/>
      </g>
     </g>
    </g>
    <g id="xtick_58">
     <g id="line2d_69">
      <g>
       <use xlink:href="#md86e51f744" x="302.328" y="142.56" style="fill: #374151; stroke: #374151; stroke-width: 0.5"/>
      </g>
     </g>
    </g>
    <g id="xtick_59">
     <g id="line2d_70">
      <g>
       <use xlink:href="#md86e51f744" x="300.492" y="142.56" style="fill: #374151; stroke: #374151; stroke-width: 0.5"/>
      </g>
     </g>
    </g>
    <g id="xtick_60">
     <g id="line2d_71">
      <g>
       <use xlink:href="#md86e51f744" x="298.656" y="142.56" style="fill: #374151; stroke: #374151; stroke-width: 0.5"/>
      </g>
     </g>
    </g>
    <g id="xtick_61">
     <g id="line2d_72">
      <g>
       <use xlink:href="#md86e51f744" x="296.82" y="142.56" style="fill: #374151; stroke: #374151; stroke-width: 0.5"/>
      </g>
     </g>
    </g>
    <g id="xtick_62">
     <g id="line2d_73">
      <g>
       <use xlink:href="#md86e51f744" x="294.984" y="142.56" style="fill: #374151; stroke: #374151; stroke-width: 0.5"/>
      </g>
     </g>
    </g>
    <g id="xtick_63">
     <g id="line2d_74">
      <g>
       <use xlink:href="#md86e51f744" x="293.148" y="142.56" style="fill: #374151; stroke: #374151; stroke-width: 0.5"/>
      </g>
     </g>
    </g>
    <g id="xtick_64">
     <g id="line2d_75">
      <g>
       <use xlink:href="#md86e51f744" x="291.312" y="142.56" style="fill: #374151; stroke: #374151; stroke-width: 0.5"/>
      </g>
     </g>
    </g>
    <g id="xtick_65">
     <g id="line2d_76">
      <g>
       <use xlink:href="#md86e51f744" x="289.476" y="142.56" style="fill: #374151; stroke: #374151; stroke-width: 0.5"/>
      </g>
     </g>
    </g>
    <g id="xtick_66">
     <g id="line2d_77">
      <g>
       <use xlink:href="#md86e51f744" x="285.804" y="142.56" style="fill: #374151; stroke: #374151; stroke-width: 0.5"/>
      </g>
     </g>
    </g>
    <g id="xtick_67">
     <g id="line2d_78">
      <g>
       <use xlink:href="#md86e51f744" x="283.968" y="142.56" style="fill: #374151; stroke: #374151; stroke-width: 0.5"/>
      </g>
     </g>
    </g>
    <g id="xtick_68">
     <g id="line2d_79">
      <g>
       <use xlink:href="#md86e51f744" x="282.132" y="142.56" style="fill: #374151; stroke: #374151; stroke-width: 0.5"/>
      </g>
     </g>
    </g>
    <g id="xtick_69">
     <g id="line2d_80">
      <g>
       <use xlink:href="#md86e51f744" x="280.296" y="142.56" style="fill: #374151; stroke: #374151; stroke-width: 0.5"/>
      </g>
     </g>
    </g>
    <g id="xtick_70">
     <g id="line2d_81">
      <g>
       <use xlink:href="#md86e51f744" x="278.46" y="142.56" style="fill: #374151; stroke: #374151; stroke-width: 0.5"/>
      </g>
     </g>
    </g>
    <g id="xtick_71">
     <g id="line2d_82">
      <g>
       <use xlink:href="#md86e51f744" x="276.624" y="142.56" style="fill: #374151; stroke: #374151; stroke-width: 0.5"/>
      </g>
     </g>
    </g>
    <g id="xtick_72">
     <g id="line2d_83">
      <g>
       <use xlink:href="#md86e51f744" x="274.788" y="142.56" style="fill: #374151; stroke: #374151; stroke-width: 0.5"/>
      </g>
     </g>
    </g>
    <g id="xtick_73">
     <g id="line2d_84">
      <g>
       <use xlink:href="#md86e51f744" x="272.952" y="142.56" style="fill: #374151; stroke: #374151; stroke-width: 0.5"/>
      </g>
     </g>
    </g>
    <g id="xtick_74">
     <g id="line2d_85">
      <g>
       <use xlink:href="#md86e51f744" x="271.116" y="142.56" style="fill: #374151; stroke: #374151; stroke-width: 0.5"/>
      </g>
     </g>
    </g>
    <g id="xtick_75">
     <g id="line2d_86">
      <g>
       <use xlink:href="#md86e51f744" x="267.444" y="142.56" style="fill: #374151; stroke: #374151; stroke-width: 0.5"/>
      </g>
     </g>
    </g>
    <g id="xtick_76">
     <g id="line2d_87">
      <g>
       <use xlink:href="#md86e51f744" x="265.608" y="142.56" style="fill: #374151; stroke: #374151; stroke-width: 0.5"/>
      </g>
     </g>
    </g>
    <g id="xtick_77">
     <g id="line2d_88">
      <g>
       <use xlink:href="#md86e51f744" x="263.772" y="142.56" style="fill: #374151; stroke: #374151; stroke-width: 0.5"/>
      </g>
     </g>
    </g>
    <g id="xtick_78">
     <g id="line2d_89">
      <g>
       <use xlink:href="#md86e51f744" x="261.936" y="142.56" style="fill: #374151; stroke: #374151; stroke-width: 0.5"/>
      </g>
     </g>
    </g>
    <g id="xtick_79">
     <g id="line2d_90">
      <g>
       <use xlink:href="#md86e51f744" x="260.1" y="142.56" style="fill: #374151; stroke: #374151; stroke-width: 0.5"/>
      </g>
     </g>
    </g>
    <g id="xtick_80">
     <g id="line2d_91">
      <g>
       <use xlink:href="#md86e51f744" x="258.264" y="142.56" style="fill: #374151; stroke: #374151; stroke-width: 0.5"/>
      </g>
     </g>
    </g>
    <g id="xtick_81">
     <g id="line2d_92">
      <g>
       <use xlink:href="#md86e51f744" x="256.428" y="142.56" style="fill: #374151; stroke: #374151; stroke-width: 0.5"/>
      </g>
     </g>
    </g>
    <g id="xtick_82">
     <g id="line2d_93">
      <g>
       <use xlink:href="#md86e51f744" x="254.592" y="142.56" style="fill: #374151; stroke: #374151; stroke-width: 0.5"/>
      </g>
     </g>
    </g>
    <g id="xtick_83">
     <g id="line2d_94">
      <g>
       <use xlink:href="#md86e51f744" x="252.756" y="142.56" style="fill: #374151; stroke: #374151; stroke-width: 0.5"/>
      </g>
     </g>
    </g>
    <g id="xtick_84">
     <g id="line2d_95">
      <g>
       <use xlink:href="#md86e51f744" x="249.084" y="142.56" style="fill: #374151; stroke: #374151; stroke-width: 0.5"/>
      </g>
     </g>
    </g>
    <g id="xtick_85">
     <g id="line2d_96">
      <g>
       <use xlink:href="#md86e51f744" x="247.248" y="142.56" style="fill: #374151; stroke: #374151; stroke-width: 0.5"/>
      </g>
     </g>
    </g>
    <g id="xtick_86">
     <g id="line2d_97">
      <g>
       <use xlink:href="#md86e51f744" x="245.412" y="142.56" style="fill: #374151; stroke: #374151; stroke-width: 0.5"/>
      </g>
     </g>
    </g>
    <g id="xtick_87">
     <g id="line2d_98">
      <g>
       <use xlink:href="#md86e51f744" x="243.576" y="142.56" style="fill: #374151; stroke: #374151; stroke-width: 0.5"/>
      </g>
     </g>
    </g>
    <g id="xtick_88">
     <g id="line2d_99">
      <g>
       <use xlink:href="#md86e51f744" x="241.74" y="142.56" style="fill: #374151; stroke: #374151; stroke-width: 0.5"/>
      </g>
     </g>
    </g>
    <g id="xtick_89">
     <g id="line2d_100">
      <g>
       <use xlink:href="#md86e51f744" x="239.904" y="142.56" style="fill: #374151; stroke: #374151; stroke-width: 0.5"/>
      </g>
     </g>
    </g>
    <g id="xtick_90">
     <g id="line2d_101">
      <g>
       <use xlink:href="#md86e51f744" x="238.068" y="142.56" style="fill: #374151; stroke: #374151; stroke-width: 0.5"/>
      </g>
     </g>
    </g>
    <g id="xtick_91">
     <g id="line2d_102">
      <g>
       <use xlink:href="#md86e51f744" x="236.232" y="142.56" style="fill: #374151; stroke: #374151; stroke-width: 0.5"/>
      </g>
     </g>
    </g>
    <g id="xtick_92">
     <g id="line2d_103">
      <g>
       <use xlink:href="#md86e51f744" x="234.396" y="142.56" style="fill: #374151; stroke: #374151; stroke-width: 0.5"/>
      </g>
     </g>
    </g>
    <g id="xtick_93">
     <g id="line2d_104">
      <g>
       <use xlink:href="#md86e51f744" x="230.724" y="142.56" style="fill: #374151; stroke: #374151; stroke-width: 0.5"/>
      </g>
     </g>
    </g>
    <g id="xtick_94">
     <g id="line2d_105">
      <g>
       <use xlink:href="#md86e51f744" x="228.888" y="142.56" style="fill: #374151; stroke: #374151; stroke-width: 0.5"/>
      </g>
     </g>
    </g>
    <g id="xtick_95">
     <g id="line2d_106">
      <g>
       <use xlink:href="#md86e51f744" x="227.052" y="142.56" style="fill: #374151; stroke: #374151; stroke-width: 0.5"/>
      </g>
     </g>
    </g>
    <g id="xtick_96">
     <g id="line2d_107">
      <g>
       <use xlink:href="#md86e51f744" x="225.216" y="142.56" style="fill: #374151; stroke: #374151; stroke-width: 0.5"/>
      </g>
     </g>
    </g>
    <g id="xtick_97">
     <g id="line2d_108">
      <g>
       <use xlink:href="#md86e51f744" x="223.38" y="142.56" style="fill: #374151; stroke: #374151; stroke-width: 0.5"/>
      </g>
     </g>
    </g>
    <g id="xtick_98">
     <g id="line2d_109">
      <g>
       <use xlink:href="#md86e51f744" x="221.544" y="142.56" style="fill: #374151; stroke: #374151; stroke-width: 0.5"/>
      </g>
     </g>
    </g>
    <g id="xtick_99">
     <g id="line2d_110">
      <g>
       <use xlink:href="#md86e51f744" x="219.708" y="142.56" style="fill: #374151; stroke: #374151; stroke-width: 0.5"/>
      </g>
     </g>
    </g>
    <g id="xtick_100">
     <g id="line2d_111">
      <g>
       <use xlink:href="#md86e51f744" x="217.872" y="142.56" style="fill: #374151; stroke: #374151; stroke-width: 0.5"/>
      </g>
     </g>
    </g>
    <g id="xtick_101">
     <g id="line2d_112">
      <g>
       <use xlink:href="#md86e51f744" x="216.036" y="142.56" style="fill: #374151; stroke: #374151; stroke-width: 0.5"/>
      </g>
     </g>
    </g>
    <g id="text_23">
     <text style="fill: #374151; font: 9px 'DejaVu Sans'; text-anchor: middle" x="306" y="164.673281" transform="rotate(-0 306 164.673281)">Hydrogen Chemical Shift (ppm)</text>
    </g>
   </g>
   <g id="matplotlib.axis_2">
    <g id="ytick_1"/>
    <g id="ytick_2"/>
   </g>
   <g id="patch_4">
    <path d="M 214.2 142.56 
L 214.2 118.404 
" style="fill: none; stroke: #374151; stroke-width: 0.8; stroke-linejoin: miter; stroke-linecap: square"/>
   </g>
   <g id="patch_5">
    <path d="M 397.8 142.56 
L 397.8 118.404 
" style="fill: none; stroke: #374151; stroke-width: 0.8; stroke-linejoin: miter; stroke-linecap: square"/>
   </g>
   <g id="patch_6">
    <path d="M 214.2 142.56 
L 397.8 142.56 
" style="fill: none; stroke: #374151; stroke-width: 0.8; stroke-linejoin: miter; stroke-linecap: square"/>
   </g>
   <g id="patch_7">
    <path d="M 214.2 118.404 
L 397.8 118.404 
" style="fill: none; stroke: #374151; stroke-width: 0.8; stroke-linejoin: miter; stroke-linecap: square"/>
   </g>
   <g id="text_24">
    <text style="fill: #111827; font: 600 8.2px 'DejaVu Serif'; text-anchor: end" x="188.496" y="132.744688" transform="rotate(-0 188.496 132.744688)">HIS HD1 / HE2</text>
   </g>
  </g>
  <g id="axes_2">
   <g id="patch_8">
    <path d="M 397.8 142.56 
L 397.8 141.883361 
L 397.093846 141.883361 
L 397.093846 142.56 
L 396.387692 142.56 
L 396.387692 142.56 
L 395.681538 142.56 
L 395.681538 142.56 
L 394.975385 142.56 
L 394.975385 142.56 
L 394.269231 142.56 
L 394.269231 142.56 
L 393.563077 142.56 
L 393.563077 142.56 
L 392.856923 142.56 
L 392.856923 142.56 
L 392.150769 142.56 
L 392.150769 141.883361 
L 391.444615 141.883361 
L 391.444615 142.56 
L 390.738462 142.56 
L 390.738462 142.56 
L 390.032308 142.56 
L 390.032308 141.883361 
L 389.326154 141.883361 
L 389.326154 142.56 
L 388.62 142.56 
L 388.62 142.56 
L 387.913846 142.56 
L 387.913846 141.883361 
L 387.207692 141.883361 
L 387.207692 140.530084 
L 386.501538 140.530084 
L 386.501538 142.56 
L 385.795385 142.56 
L 385.795385 142.56 
L 385.089231 142.56 
L 385.089231 142.56 
L 384.383077 142.56 
L 384.383077 142.56 
L 383.676923 142.56 
L 383.676923 141.883361 
L 382.970769 141.883361 
L 382.970769 141.883361 
L 382.264615 141.883361 
L 382.264615 141.883361 
L 381.558462 141.883361 
L 381.558462 141.206723 
L 380.852308 141.206723 
L 380.852308 141.883361 
L 380.146154 141.883361 
L 380.146154 140.530084 
L 379.44 140.530084 
L 379.44 140.530084 
L 378.733846 140.530084 
L 378.733846 139.176807 
L 378.027692 139.176807 
L 378.027692 141.206723 
L 377.321538 141.206723 
L 377.321538 138.500168 
L 376.615385 138.500168 
L 376.615385 140.530084 
L 375.909231 140.530084 
L 375.909231 137.823529 
L 375.203077 137.823529 
L 375.203077 139.853445 
L 374.496923 139.853445 
L 374.496923 139.853445 
L 373.790769 139.853445 
L 373.790769 140.530084 
L 373.084615 140.530084 
L 373.084615 141.206723 
L 372.378462 141.206723 
L 372.378462 141.206723 
L 371.672308 141.206723 
L 371.672308 140.530084 
L 370.966154 140.530084 
L 370.966154 141.883361 
L 370.26 141.883361 
L 370.26 141.206723 
L 369.553846 141.206723 
L 369.553846 140.530084 
L 368.847692 140.530084 
L 368.847692 141.206723 
L 368.141538 141.206723 
L 368.141538 140.530084 
L 367.435385 140.530084 
L 367.435385 138.500168 
L 366.729231 138.500168 
L 366.729231 139.853445 
L 366.023077 139.853445 
L 366.023077 139.853445 
L 365.316923 139.853445 
L 365.316923 139.176807 
L 364.610769 139.176807 
L 364.610769 141.883361 
L 363.904615 141.883361 
L 363.904615 140.530084 
L 363.198462 140.530084 
L 363.198462 138.500168 
L 362.492308 138.500168 
L 362.492308 139.853445 
L 361.786154 139.853445 
L 361.786154 138.500168 
L 361.08 138.500168 
L 361.08 139.176807 
L 360.373846 139.176807 
L 360.373846 142.56 
L 359.667692 142.56 
L 359.667692 141.883361 
L 358.961538 141.883361 
L 358.961538 139.853445 
L 358.255385 139.853445 
L 358.255385 140.530084 
L 357.549231 140.530084 
L 357.549231 135.793613 
L 356.843077 135.793613 
L 356.843077 141.206723 
L 356.136923 141.206723 
L 356.136923 142.56 
L 355.430769 142.56 
L 355.430769 139.853445 
L 354.724615 139.853445 
L 354.724615 141.206723 
L 354.018462 141.206723 
L 354.018462 140.530084 
L 353.312308 140.530084 
L 353.312308 139.853445 
L 352.606154 139.853445 
L 352.606154 139.853445 
L 351.9 139.853445 
L 351.9 138.500168 
L 351.193846 138.500168 
L 351.193846 138.500168 
L 350.487692 138.500168 
L 350.487692 139.176807 
L 349.781538 139.176807 
L 349.781538 139.853445 
L 349.075385 139.853445 
L 349.075385 140.530084 
L 348.369231 140.530084 
L 348.369231 140.530084 
L 347.663077 140.530084 
L 347.663077 139.853445 
L 346.956923 139.853445 
L 346.956923 141.206723 
L 346.250769 141.206723 
L 346.250769 142.56 
L 345.544615 142.56 
L 345.544615 141.883361 
L 344.838462 141.883361 
L 344.838462 142.56 
L 344.132308 142.56 
L 344.132308 141.883361 
L 343.426154 141.883361 
L 343.426154 142.56 
L 342.72 142.56 
L 342.72 142.56 
L 342.013846 142.56 
L 342.013846 142.56 
L 341.307692 142.56 
L 341.307692 142.56 
L 340.601538 142.56 
L 340.601538 142.56 
L 339.895385 142.56 
L 339.895385 142.56 
L 339.189231 142.56 
L 339.189231 142.56 
L 338.483077 142.56 
L 338.483077 141.883361 
L 337.776923 141.883361 
L 337.776923 142.56 
L 337.070769 142.56 
L 337.070769 142.56 
L 336.364615 142.56 
L 336.364615 142.56 
L 335.658462 142.56 
L 335.658462 141.883361 
L 334.952308 141.883361 
L 334.952308 141.883361 
L 334.246154 141.883361 
L 334.246154 141.883361 
L 333.54 141.883361 
L 333.54 141.883361 
L 332.833846 141.883361 
L 332.833846 140.530084 
L 332.127692 140.530084 
L 332.127692 141.883361 
L 331.421538 141.883361 
L 331.421538 140.530084 
L 330.715385 140.530084 
L 330.715385 142.56 
L 330.009231 142.56 
L 330.009231 142.56 
L 329.303077 142.56 
L 329.303077 142.56 
L 328.596923 142.56 
L 328.596923 141.206723 
L 327.890769 141.206723 
L 327.890769 142.56 
L 327.184615 142.56 
L 327.184615 141.883361 
L 326.478462 141.883361 
L 326.478462 140.530084 
L 325.772308 140.530084 
L 325.772308 142.56 
L 325.066154 142.56 
L 325.066154 142.56 
L 324.36 142.56 
L 324.36 141.883361 
L 323.653846 141.883361 
L 323.653846 141.206723 
L 322.947692 141.206723 
L 322.947692 142.56 
L 322.241538 142.56 
L 322.241538 141.206723 
L 321.535385 141.206723 
L 321.535385 141.883361 
L 320.829231 141.883361 
L 320.829231 141.883361 
L 320.123077 141.883361 
L 320.123077 142.56 
L 319.416923 142.56 
L 319.416923 142.56 
L 318.710769 142.56 
L 318.710769 139.853445 
L 318.004615 139.853445 
L 318.004615 141.206723 
L 317.298462 141.206723 
L 317.298462 141.883361 
L 316.592308 141.883361 
L 316.592308 141.883361 
L 315.886154 141.883361 
L 315.886154 142.56 
L 315.18 142.56 
L 315.18 142.56 
L 314.473846 142.56 
L 314.473846 141.206723 
L 313.767692 141.206723 
L 313.767692 140.530084 
L 313.061538 140.530084 
L 313.061538 142.56 
L 312.355385 142.56 
L 312.355385 137.823529 
L 311.649231 137.823529 
L 311.649231 140.530084 
L 310.943077 140.530084 
L 310.943077 141.883361 
L 310.236923 141.883361 
L 310.236923 141.883361 
L 309.530769 141.883361 
L 309.530769 142.56 
L 308.824615 142.56 
L 308.824615 141.206723 
L 308.118462 141.206723 
L 308.118462 141.883361 
L 307.412308 141.883361 
L 307.412308 141.206723 
L 306.706154 141.206723 
L 306.706154 141.883361 
L 306 141.883361 
L 306 141.883361 
L 305.293846 141.883361 
L 305.293846 139.853445 
L 304.587692 139.853445 
L 304.587692 136.470252 
L 303.881538 136.470252 
L 303.881538 139.853445 
L 303.175385 139.853445 
L 303.175385 140.530084 
L 302.469231 140.530084 
L 302.469231 141.206723 
L 301.763077 141.206723 
L 301.763077 140.530084 
L 301.056923 140.530084 
L 301.056923 139.176807 
L 300.350769 139.176807 
L 300.350769 139.176807 
L 299.644615 139.176807 
L 299.644615 139.176807 
L 298.938462 139.176807 
L 298.938462 140.530084 
L 298.232308 140.530084 
L 298.232308 142.56 
L 297.526154 142.56 
L 297.526154 140.530084 
L 296.82 140.530084 
L 296.82 136.470252 
L 296.113846 136.470252 
L 296.113846 140.530084 
L 295.407692 140.530084 
L 295.407692 138.500168 
L 294.701538 138.500168 
L 294.701538 139.853445 
L 293.995385 139.853445 
L 293.995385 142.56 
L 293.289231 142.56 
L 293.289231 140.530084 
L 292.583077 140.530084 
L 292.583077 141.206723 
L 291.876923 141.206723 
L 291.876923 138.500168 
L 291.170769 138.500168 
L 291.170769 141.883361 
L 290.464615 141.883361 
L 290.464615 141.206723 
L 289.758462 141.206723 
L 289.758462 142.56 
L 289.052308 142.56 
L 289.052308 141.883361 
L 288.346154 141.883361 
L 288.346154 141.883361 
L 287.64 141.883361 
L 287.64 139.853445 
L 286.933846 139.853445 
L 286.933846 141.883361 
L 286.227692 141.883361 
L 286.227692 141.206723 
L 285.521538 141.206723 
L 285.521538 141.206723 
L 284.815385 141.206723 
L 284.815385 141.883361 
L 284.109231 141.883361 
L 284.109231 141.883361 
L 283.403077 141.883361 
L 283.403077 139.853445 
L 282.696923 139.853445 
L 282.696923 142.56 
L 281.990769 142.56 
L 281.990769 142.56 
L 281.284615 142.56 
L 281.284615 141.883361 
L 280.578462 141.883361 
L 280.578462 135.116975 
L 279.872308 135.116975 
L 279.872308 141.206723 
L 279.166154 141.206723 
L 279.166154 141.883361 
L 278.46 141.883361 
L 278.46 141.206723 
L 277.753846 141.206723 
L 277.753846 142.56 
L 277.047692 142.56 
L 277.047692 141.206723 
L 276.341538 141.206723 
L 276.341538 142.56 
L 275.635385 142.56 
L 275.635385 142.56 
L 274.929231 142.56 
L 274.929231 142.56 
L 274.223077 142.56 
L 274.223077 142.56 
L 273.516923 142.56 
L 273.516923 141.206723 
L 272.810769 141.206723 
L 272.810769 139.176807 
L 272.104615 139.176807 
L 272.104615 142.56 
L 271.398462 142.56 
L 271.398462 142.56 
L 270.692308 142.56 
L 270.692308 141.206723 
L 269.986154 141.206723 
L 269.986154 142.56 
L 269.28 142.56 
L 269.28 142.56 
L 268.573846 142.56 
L 268.573846 142.56 
L 267.867692 142.56 
L 267.867692 141.883361 
L 267.161538 141.883361 
L 267.161538 141.206723 
L 266.455385 141.206723 
L 266.455385 141.883361 
L 265.749231 141.883361 
L 265.749231 142.56 
L 265.043077 142.56 
L 265.043077 141.883361 
L 264.336923 141.883361 
L 264.336923 142.56 
L 263.630769 142.56 
L 263.630769 141.883361 
L 262.924615 141.883361 
L 262.924615 142.56 
L 262.218462 142.56 
L 262.218462 141.883361 
L 261.512308 141.883361 
L 261.512308 142.56 
L 260.806154 142.56 
L 260.806154 142.56 
L 260.1 142.56 
L 260.1 141.883361 
L 259.393846 141.883361 
L 259.393846 142.56 
L 258.687692 142.56 
L 258.687692 142.56 
L 257.981538 142.56 
L 257.981538 142.56 
L 257.275385 142.56 
L 257.275385 142.56 
L 256.569231 142.56 
L 256.569231 142.56 
L 255.863077 142.56 
L 255.863077 142.56 
L 255.156923 142.56 
L 255.156923 142.56 
L 254.450769 142.56 
L 254.450769 142.56 
L 253.744615 142.56 
L 253.744615 142.56 
L 253.038462 142.56 
L 253.038462 142.56 
L 252.332308 142.56 
L 252.332308 142.56 
L 251.626154 142.56 
L 251.626154 142.56 
L 250.92 142.56 
L 250.92 142.56 
L 250.213846 142.56 
L 250.213846 142.56 
L 249.507692 142.56 
L 249.507692 140.530084 
L 248.801538 140.530084 
L 248.801538 141.883361 
L 248.095385 141.883361 
L 248.095385 142.56 
L 247.389231 142.56 
L 247.389231 141.883361 
L 246.683077 141.883361 
L 246.683077 142.56 
L 245.976923 142.56 
L 245.976923 142.56 
L 245.270769 142.56 
L 245.270769 141.883361 
L 244.564615 141.883361 
L 244.564615 142.56 
L 243.858462 142.56 
L 243.858462 141.883361 
L 243.152308 141.883361 
L 243.152308 142.56 
L 242.446154 142.56 
L 242.446154 142.56 
L 241.74 142.56 
L 241.74 142.56 
L 241.033846 142.56 
L 241.033846 142.56 
L 240.327692 142.56 
L 240.327692 142.56 
L 239.621538 142.56 
L 239.621538 141.883361 
L 238.915385 141.883361 
L 238.915385 142.56 
L 238.209231 142.56 
L 238.209231 142.56 
L 237.503077 142.56 
L 237.503077 142.56 
L 236.796923 142.56 
L 236.796923 142.56 
L 236.090769 142.56 
L 236.090769 142.56 
L 235.384615 142.56 
L 235.384615 142.56 
L 234.678462 142.56 
L 234.678462 141.883361 
L 233.972308 141.883361 
L 233.972308 142.56 
L 233.266154 142.56 
L 233.266154 141.206723 
L 232.56 141.206723 
L 232.56 141.883361 
L 231.853846 141.883361 
L 231.853846 142.56 
L 231.147692 142.56 
L 231.147692 142.56 
L 230.441538 142.56 
L 230.441538 142.56 
L 229.735385 142.56 
L 229.735385 142.56 
L 229.029231 142.56 
L 229.029231 141.883361 
L 228.323077 141.883361 
L 228.323077 142.56 
L 227.616923 142.56 
L 227.616923 141.883361 
L 226.910769 141.883361 
L 226.910769 142.56 
L 226.204615 142.56 
L 226.204615 142.56 
L 225.498462 142.56 
L 225.498462 142.56 
L 224.792308 142.56 
L 224.792308 142.56 
L 224.086154 142.56 
L 224.086154 142.56 
L 223.38 142.56 
L 223.38 142.56 
L 222.673846 142.56 
L 222.673846 142.56 
L 221.967692 142.56 
L 221.967692 142.56 
L 221.261538 142.56 
L 221.261538 142.56 
L 220.555385 142.56 
L 220.555385 142.56 
L 219.849231 142.56 
L 219.849231 142.56 
L 219.143077 142.56 
L 219.143077 142.56 
L 218.436923 142.56 
L 218.436923 142.56 
L 217.730769 142.56 
L 217.730769 142.56 
L 217.024615 142.56 
L 217.024615 142.56 
L 216.318462 142.56 
L 216.318462 142.56 
L 215.612308 142.56 
L 215.612308 142.56 
L 214.906154 142.56 
L 214.906154 142.56 
L 214.2 142.56 
L 214.2 142.56 
L 214.906154 142.56 
L 214.906154 142.56 
L 215.612308 142.56 
L 215.612308 142.56 
L 216.318462 142.56 
L 216.318462 142.56 
L 217.024615 142.56 
L 217.024615 142.56 
L 217.730769 142.56 
L 217.730769 142.56 
L 218.436923 142.56 
L 218.436923 142.56 
L 219.143077 142.56 
L 219.143077 142.56 
L 219.849231 142.56 
L 219.849231 142.56 
L 220.555385 142.56 
L 220.555385 142.56 
L 221.261538 142.56 
L 221.261538 142.56 
L 221.967692 142.56 
L 221.967692 142.56 
L 222.673846 142.56 
L 222.673846 142.56 
L 223.38 142.56 
L 223.38 142.56 
L 224.086154 142.56 
L 224.086154 142.56 
L 224.792308 142.56 
L 224.792308 142.56 
L 225.498462 142.56 
L 225.498462 142.56 
L 226.204615 142.56 
L 226.204615 142.56 
L 226.910769 142.56 
L 226.910769 142.56 
L 227.616923 142.56 
L 227.616923 142.56 
L 228.323077 142.56 
L 228.323077 142.56 
L 229.029231 142.56 
L 229.029231 142.56 
L 229.735385 142.56 
L 229.735385 142.56 
L 230.441538 142.56 
L 230.441538 142.56 
L 231.147692 142.56 
L 231.147692 142.56 
L 231.853846 142.56 
L 231.853846 142.56 
L 232.56 142.56 
L 232.56 142.56 
L 233.266154 142.56 
L 233.266154 142.56 
L 233.972308 142.56 
L 233.972308 142.56 
L 234.678462 142.56 
L 234.678462 142.56 
L 235.384615 142.56 
L 235.384615 142.56 
L 236.090769 142.56 
L 236.090769 142.56 
L 236.796923 142.56 
L 236.796923 142.56 
L 237.503077 142.56 
L 237.503077 142.56 
L 238.209231 142.56 
L 238.209231 142.56 
L 238.915385 142.56 
L 238.915385 142.56 
L 239.621538 142.56 
L 239.621538 142.56 
L 240.327692 142.56 
L 240.327692 142.56 
L 241.033846 142.56 
L 241.033846 142.56 
L 241.74 142.56 
L 241.74 142.56 
L 242.446154 142.56 
L 242.446154 142.56 
L 243.152308 142.56 
L 243.152308 142.56 
L 243.858462 142.56 
L 243.858462 142.56 
L 244.564615 142.56 
L 244.564615 142.56 
L 245.270769 142.56 
L 245.270769 142.56 
L 245.976923 142.56 
L 245.976923 142.56 
L 246.683077 142.56 
L 246.683077 142.56 
L 247.389231 142.56 
L 247.389231 142.56 
L 248.095385 142.56 
L 248.095385 142.56 
L 248.801538 142.56 
L 248.801538 142.56 
L 249.507692 142.56 
L 249.507692 142.56 
L 250.213846 142.56 
L 250.213846 142.56 
L 250.92 142.56 
L 250.92 142.56 
L 251.626154 142.56 
L 251.626154 142.56 
L 252.332308 142.56 
L 252.332308 142.56 
L 253.038462 142.56 
L 253.038462 142.56 
L 253.744615 142.56 
L 253.744615 142.56 
L 254.450769 142.56 
L 254.450769 142.56 
L 255.156923 142.56 
L 255.156923 142.56 
L 255.863077 142.56 
L 255.863077 142.56 
L 256.569231 142.56 
L 256.569231 142.56 
L 257.275385 142.56 
L 257.275385 142.56 
L 257.981538 142.56 
L 257.981538 142.56 
L 258.687692 142.56 
L 258.687692 142.56 
L 259.393846 142.56 
L 259.393846 142.56 
L 260.1 142.56 
L 260.1 142.56 
L 260.806154 142.56 
L 260.806154 142.56 
L 261.512308 142.56 
L 261.512308 142.56 
L 262.218462 142.56 
L 262.218462 142.56 
L 262.924615 142.56 
L 262.924615 142.56 
L 263.630769 142.56 
L 263.630769 142.56 
L 264.336923 142.56 
L 264.336923 142.56 
L 265.043077 142.56 
L 265.043077 142.56 
L 265.749231 142.56 
L 265.749231 142.56 
L 266.455385 142.56 
L 266.455385 142.56 
L 267.161538 142.56 
L 267.161538 142.56 
L 267.867692 142.56 
L 267.867692 142.56 
L 268.573846 142.56 
L 268.573846 142.56 
L 269.28 142.56 
L 269.28 142.56 
L 269.986154 142.56 
L 269.986154 142.56 
L 270.692308 142.56 
L 270.692308 142.56 
L 271.398462 142.56 
L 271.398462 142.56 
L 272.104615 142.56 
L 272.104615 142.56 
L 272.810769 142.56 
L 272.810769 142.56 
L 273.516923 142.56 
L 273.516923 142.56 
L 274.223077 142.56 
L 274.223077 142.56 
L 274.929231 142.56 
L 274.929231 142.56 
L 275.635385 142.56 
L 275.635385 142.56 
L 276.341538 142.56 
L 276.341538 142.56 
L 277.047692 142.56 
L 277.047692 142.56 
L 277.753846 142.56 
L 277.753846 142.56 
L 278.46 142.56 
L 278.46 142.56 
L 279.166154 142.56 
L 279.166154 142.56 
L 279.872308 142.56 
L 279.872308 142.56 
L 280.578462 142.56 
L 280.578462 142.56 
L 281.284615 142.56 
L 281.284615 142.56 
L 281.990769 142.56 
L 281.990769 142.56 
L 282.696923 142.56 
L 282.696923 142.56 
L 283.403077 142.56 
L 283.403077 142.56 
L 284.109231 142.56 
L 284.109231 142.56 
L 284.815385 142.56 
L 284.815385 142.56 
L 285.521538 142.56 
L 285.521538 142.56 
L 286.227692 142.56 
L 286.227692 142.56 
L 286.933846 142.56 
L 286.933846 142.56 
L 287.64 142.56 
L 287.64 142.56 
L 288.346154 142.56 
L 288.346154 142.56 
L 289.052308 142.56 
L 289.052308 142.56 
L 289.758462 142.56 
L 289.758462 142.56 
L 290.464615 142.56 
L 290.464615 142.56 
L 291.170769 142.56 
L 291.170769 142.56 
L 291.876923 142.56 
L 291.876923 142.56 
L 292.583077 142.56 
L 292.583077 142.56 
L 293.289231 142.56 
L 293.289231 142.56 
L 293.995385 142.56 
L 293.995385 142.56 
L 294.701538 142.56 
L 294.701538 142.56 
L 295.407692 142.56 
L 295.407692 142.56 
L 296.113846 142.56 
L 296.113846 142.56 
L 296.82 142.56 
L 296.82 142.56 
L 297.526154 142.56 
L 297.526154 142.56 
L 298.232308 142.56 
L 298.232308 142.56 
L 298.938462 142.56 
L 298.938462 142.56 
L 299.644615 142.56 
L 299.644615 142.56 
L 300.350769 142.56 
L 300.350769 142.56 
L 301.056923 142.56 
L 301.056923 142.56 
L 301.763077 142.56 
L 301.763077 142.56 
L 302.469231 142.56 
L 302.469231 142.56 
L 303.175385 142.56 
L 303.175385 142.56 
L 303.881538 142.56 
L 303.881538 142.56 
L 304.587692 142.56 
L 304.587692 142.56 
L 305.293846 142.56 
L 305.293846 142.56 
L 306 142.56 
L 306 142.56 
L 306.706154 142.56 
L 306.706154 142.56 
L 307.412308 142.56 
L 307.412308 142.56 
L 308.118462 142.56 
L 308.118462 142.56 
L 308.824615 142.56 
L 308.824615 142.56 
L 309.530769 142.56 
L 309.530769 142.56 
L 310.236923 142.56 
L 310.236923 142.56 
L 310.943077 142.56 
L 310.943077 142.56 
L 311.649231 142.56 
L 311.649231 142.56 
L 312.355385 142.56 
L 312.355385 142.56 
L 313.061538 142.56 
L 313.061538 142.56 
L 313.767692 142.56 
L 313.767692 142.56 
L 314.473846 142.56 
L 314.473846 142.56 
L 315.18 142.56 
L 315.18 142.56 
L 315.886154 142.56 
L 315.886154 142.56 
L 316.592308 142.56 
L 316.592308 142.56 
L 317.298462 142.56 
L 317.298462 142.56 
L 318.004615 142.56 
L 318.004615 142.56 
L 318.710769 142.56 
L 318.710769 142.56 
L 319.416923 142.56 
L 319.416923 142.56 
L 320.123077 142.56 
L 320.123077 142.56 
L 320.829231 142.56 
L 320.829231 142.56 
L 321.535385 142.56 
L 321.535385 142.56 
L 322.241538 142.56 
L 322.241538 142.56 
L 322.947692 142.56 
L 322.947692 142.56 
L 323.653846 142.56 
L 323.653846 142.56 
L 324.36 142.56 
L 324.36 142.56 
L 325.066154 142.56 
L 325.066154 142.56 
L 325.772308 142.56 
L 325.772308 142.56 
L 326.478462 142.56 
L 326.478462 142.56 
L 327.184615 142.56 
L 327.184615 142.56 
L 327.890769 142.56 
L 327.890769 142.56 
L 328.596923 142.56 
L 328.596923 142.56 
L 329.303077 142.56 
L 329.303077 142.56 
L 330.009231 142.56 
L 330.009231 142.56 
L 330.715385 142.56 
L 330.715385 142.56 
L 331.421538 142.56 
L 331.421538 142.56 
L 332.127692 142.56 
L 332.127692 142.56 
L 332.833846 142.56 
L 332.833846 142.56 
L 333.54 142.56 
L 333.54 142.56 
L 334.246154 142.56 
L 334.246154 142.56 
L 334.952308 142.56 
L 334.952308 142.56 
L 335.658462 142.56 
L 335.658462 142.56 
L 336.364615 142.56 
L 336.364615 142.56 
L 337.070769 142.56 
L 337.070769 142.56 
L 337.776923 142.56 
L 337.776923 142.56 
L 338.483077 142.56 
L 338.483077 142.56 
L 339.189231 142.56 
L 339.189231 142.56 
L 339.895385 142.56 
L 339.895385 142.56 
L 340.601538 142.56 
L 340.601538 142.56 
L 341.307692 142.56 
L 341.307692 142.56 
L 342.013846 142.56 
L 342.013846 142.56 
L 342.72 142.56 
L 342.72 142.56 
L 343.426154 142.56 
L 343.426154 142.56 
L 344.132308 142.56 
L 344.132308 142.56 
L 344.838462 142.56 
L 344.838462 142.56 
L 345.544615 142.56 
L 345.544615 142.56 
L 346.250769 142.56 
L 346.250769 142.56 
L 346.956923 142.56 
L 346.956923 142.56 
L 347.663077 142.56 
L 347.663077 142.56 
L 348.369231 142.56 
L 348.369231 142.56 
L 349.075385 142.56 
L 349.075385 142.56 
L 349.781538 142.56 
L 349.781538 142.56 
L 350.487692 142.56 
L 350.487692 142.56 
L 351.193846 142.56 
L 351.193846 142.56 
L 351.9 142.56 
L 351.9 142.56 
L 352.606154 142.56 
L 352.606154 142.56 
L 353.312308 142.56 
L 353.312308 142.56 
L 354.018462 142.56 
L 354.018462 142.56 
L 354.724615 142.56 
L 354.724615 142.56 
L 355.430769 142.56 
L 355.430769 142.56 
L 356.136923 142.56 
L 356.136923 142.56 
L 356.843077 142.56 
L 356.843077 142.56 
L 357.549231 142.56 
L 357.549231 142.56 
L 358.255385 142.56 
L 358.255385 142.56 
L 358.961538 142.56 
L 358.961538 142.56 
L 359.667692 142.56 
L 359.667692 142.56 
L 360.373846 142.56 
L 360.373846 142.56 
L 361.08 142.56 
L 361.08 142.56 
L 361.786154 142.56 
L 361.786154 142.56 
L 362.492308 142.56 
L 362.492308 142.56 
L 363.198462 142.56 
L 363.198462 142.56 
L 363.904615 142.56 
L 363.904615 142.56 
L 364.610769 142.56 
L 364.610769 142.56 
L 365.316923 142.56 
L 365.316923 142.56 
L 366.023077 142.56 
L 366.023077 142.56 
L 366.729231 142.56 
L 366.729231 142.56 
L 367.435385 142.56 
L 367.435385 142.56 
L 368.141538 142.56 
L 368.141538 142.56 
L 368.847692 142.56 
L 368.847692 142.56 
L 369.553846 142.56 
L 369.553846 142.56 
L 370.26 142.56 
L 370.26 142.56 
L 370.966154 142.56 
L 370.966154 142.56 
L 371.672308 142.56 
L 371.672308 142.56 
L 372.378462 142.56 
L 372.378462 142.56 
L 373.084615 142.56 
L 373.084615 142.56 
L 373.790769 142.56 
L 373.790769 142.56 
L 374.496923 142.56 
L 374.496923 142.56 
L 375.203077 142.56 
L 375.203077 142.56 
L 375.909231 142.56 
L 375.909231 142.56 
L 376.615385 142.56 
L 376.615385 142.56 
L 377.321538 142.56 
L 377.321538 142.56 
L 378.027692 142.56 
L 378.027692 142.56 
L 378.733846 142.56 
L 378.733846 142.56 
L 379.44 142.56 
L 379.44 142.56 
L 380.146154 142.56 
L 380.146154 142.56 
L 380.852308 142.56 
L 380.852308 142.56 
L 381.558462 142.56 
L 381.558462 142.56 
L 382.264615 142.56 
L 382.264615 142.56 
L 382.970769 142.56 
L 382.970769 142.56 
L 383.676923 142.56 
L 383.676923 142.56 
L 384.383077 142.56 
L 384.383077 142.56 
L 385.089231 142.56 
L 385.089231 142.56 
L 385.795385 142.56 
L 385.795385 142.56 
L 386.501538 142.56 
L 386.501538 142.56 
L 387.207692 142.56 
L 387.207692 142.56 
L 387.913846 142.56 
L 387.913846 142.56 
L 388.62 142.56 
L 388.62 142.56 
L 389.326154 142.56 
L 389.326154 142.56 
L 390.032308 142.56 
L 390.032308 142.56 
L 390.738462 142.56 
L 390.738462 142.56 
L 391.444615 142.56 
L 391.444615 142.56 
L 392.150769 142.56 
L 392.150769 142.56 
L 392.856923 142.56 
L 392.856923 142.56 
L 393.563077 142.56 
L 393.563077 142.56 
L 394.269231 142.56 
L 394.269231 142.56 
L 394.975385 142.56 
L 394.975385 142.56 
L 395.681538 142.56 
L 395.681538 142.56 
L 396.387692 142.56 
L 396.387692 142.56 
L 397.093846 142.56 
L 397.093846 142.56 
z
" clip-path="url(#p0401487fb6)" style="fill: #f59e0b; opacity: 0.45; stroke: #f59e0b; stroke-width: 0.8; stroke-linejoin: miter"/>
   </g>
   <g id="matplotlib.axis_3">
    <g id="ytick_3"/>
    <g id="ytick_4"/>
   </g>
  </g>
  <g id="text_25">
   <text style="fill: #111827; font: 600 12.5px 'DejaVu Serif'; text-anchor: middle" x="306" y="37.218047" transform="rotate(-0 306 37.218047)">Histidine side chain proton chemical shifts from BMRB</text>
  </g>
  <g id="legend_1">
   <g id="line2d_113">
    <path d="M 242.88875 65.91875 
L 250.88875 65.91875 
L 258.88875 65.91875 
" style="fill: none; stroke: #a78bfa; stroke-opacity: 0.45; stroke-width: 6; stroke-linecap: square"/>
   </g>
   <g id="text_26">
    <text style="font: 8px 'DejaVu Sans'; text-anchor: start" x="265.28875" y="68.71875" transform="rotate(-0 265.28875 68.71875)">HIS HD1</text>
   </g>
   <g id="line2d_114">
    <path d="M 314.5525 65.91875 
L 322.5525 65.91875 
L 330.5525 65.91875 
" style="fill: none; stroke: #f59e0b; stroke-opacity: 0.45; stroke-width: 6; stroke-linecap: square"/>
   </g>
   <g id="text_27">
    <text style="font: 8px 'DejaVu Sans'; text-anchor: start" x="336.9525" y="68.71875" transform="rotate(-0 336.9525 68.71875)">HIS HE2</text>
   </g>
  </g>
 </g>
 <defs>
  <clipPath id="p0401487fb6">
   <rect x="214.2" y="118.404" width="183.6" height="24.156"/>
  </clipPath>
 </defs>
</svg>
