<?xml version="1.0" encoding="utf-8" standalone="no"?>
<!DOCTYPE svg PUBLIC "-//W3C//DTD SVG 1.1//EN"
  "http://www.w3.org/Graphics/SVG/1.1/DTD/svg11.dtd">
<svg xmlns:xlink="http://www.w3.org/1999/xlink" width="612pt" height="792pt" viewBox="0 0 612 792" xmlns="http://www.w3.org/2000/svg" version="1.1">
 <metadata>
  <rdf:RDF xmlns:dc="http://purl.org/dc/elements/1.1/" xmlns:cc="http://creativecommons.org/ns#" xmlns:rdf="http://www.w3.org/1999/02/22-rdf-syntax-ns#">
   <cc:Work>
    <dc:type rdf:resource="http://purl.org/dc/dcmitype/StillImage"/>
    <dc:date>2026-03-31T16:25:18.124100</dc:date>
    <dc:format>image/svg+xml</dc:format>
    <dc:creator>
     <cc:Agent>
      <dc:title>Matplotlib v3.9.1, https://matplotlib.org/</dc:title>
     </cc:Agent>
    </dc:creator>
   </cc:Work>
  </rdf:RDF>
 </metadata>
 <defs>
  <style type="text/css">*{stroke-linejoin: round; stroke-linecap: butt}</style>
 </defs>
 <g id="figure_1">
  <g id="patch_1">
   <path d="M 0 792 
L 612 792 
L 612 0 
L 0 0 
z
" style="fill: #ffffff"/>
  </g>
  <g id="axes_1">
   <g id="patch_2">
    <path d="M 214.2 142.56 
L 400.153846 142.56 
L 400.153846 116.182545 
L 214.2 116.182545 
z
" style="fill: #ffffff"/>
   </g>
   <g id="patch_3">
    <path d="M 400.153846 142.56 
L 400.153846 142.56 
L 398.991635 142.56 
L 398.991635 142.56 
L 397.829423 142.56 
L 397.829423 142.56 
L 396.667212 142.56 
L 396.667212 142.56 
L 395.505 142.56 
L 395.505 142.56 
L 394.342788 142.56 
L 394.342788 142.56 
L 393.180577 142.56 
L 393.180577 142.56 
L 392.018365 142.56 
L 392.018365 142.56 
L 390.856154 142.56 
L 390.856154 140.885241 
L 389.693942 140.885241 
L 389.693942 142.56 
L 388.531731 142.56 
L 388.531731 142.56 
L 387.369519 142.56 
L 387.369519 142.56 
L 386.207308 142.56 
L 386.207308 142.56 
L 385.045096 142.56 
L 385.045096 142.56 
L 383.882885 142.56 
L 383.882885 142.56 
L 382.720673 142.56 
L 382.720673 142.56 
L 381.558462 142.56 
L 381.558462 142.56 
L 380.39625 142.56 
L 380.39625 142.56 
L 379.234038 142.56 
L 379.234038 142.56 
L 378.071827 142.56 
L 378.071827 142.56 
L 376.909615 142.56 
L 376.909615 142.56 
L 375.747404 142.56 
L 375.747404 142.56 
L 374.585192 142.56 
L 374.585192 142.56 
L 373.422981 142.56 
L 373.422981 142.56 
L 372.260769 142.56 
L 372.260769 142.56 
L 371.098558 142.56 
L 371.098558 142.56 
L 369.936346 142.56 
L 369.936346 140.885241 
L 368.774135 140.885241 
L 368.774135 142.56 
L 367.611923 142.56 
L 367.611923 142.56 
L 366.449712 142.56 
L 366.449712 142.56 
L 365.2875 142.56 
L 365.2875 142.56 
L 364.125288 142.56 
L 364.125288 142.56 
L 362.963077 142.56 
L 362.963077 142.56 
L 361.800865 142.56 
L 361.800865 140.885241 
L 360.638654 140.885241 
L 360.638654 142.56 
L 359.476442 142.56 
L 359.476442 142.56 
L 358.314231 142.56 
L 358.314231 140.885241 
L 357.152019 140.885241 
L 357.152019 139.210482 
L 355.989808 139.210482 
L 355.989808 137.535723 
L 354.827596 137.535723 
L 354.827596 134.186205 
L 353.665385 134.186205 
L 353.665385 134.186205 
L 352.503173 134.186205 
L 352.503173 137.535723 
L 351.340962 137.535723 
L 351.340962 139.210482 
L 350.17875 139.210482 
L 350.17875 127.487168 
L 349.016538 127.487168 
L 349.016538 130.836687 
L 347.854327 130.836687 
L 347.854327 139.210482 
L 346.692115 139.210482 
L 346.692115 127.487168 
L 345.529904 127.487168 
L 345.529904 132.511446 
L 344.367692 132.511446 
L 344.367692 139.210482 
L 343.205481 139.210482 
L 343.205481 135.860964 
L 342.043269 135.860964 
L 342.043269 132.511446 
L 340.881058 132.511446 
L 340.881058 127.487168 
L 339.718846 127.487168 
L 339.718846 125.812409 
L 338.556635 125.812409 
L 338.556635 135.860964 
L 337.394423 135.860964 
L 337.394423 139.210482 
L 336.232212 139.210482 
L 336.232212 137.535723 
L 335.07 137.535723 
L 335.07 134.186205 
L 333.907788 134.186205 
L 333.907788 137.535723 
L 332.745577 137.535723 
L 332.745577 127.487168 
L 331.583365 127.487168 
L 331.583365 139.210482 
L 330.421154 139.210482 
L 330.421154 130.836687 
L 329.258942 130.836687 
L 329.258942 132.511446 
L 328.096731 132.511446 
L 328.096731 137.535723 
L 326.934519 137.535723 
L 326.934519 139.210482 
L 325.772308 139.210482 
L 325.772308 135.860964 
L 324.610096 135.860964 
L 324.610096 137.535723 
L 323.447885 137.535723 
L 323.447885 142.56 
L 322.285673 142.56 
L 322.285673 134.186205 
L 321.123462 134.186205 
L 321.123462 124.13765 
L 319.96125 124.13765 
L 319.96125 142.56 
L 318.799038 142.56 
L 318.799038 137.535723 
L 317.636827 137.535723 
L 317.636827 125.812409 
L 316.474615 125.812409 
L 316.474615 125.812409 
L 315.312404 125.812409 
L 315.312404 129.161928 
L 314.150192 129.161928 
L 314.150192 132.511446 
L 312.987981 132.511446 
L 312.987981 139.210482 
L 311.825769 139.210482 
L 311.825769 125.812409 
L 310.663558 125.812409 
L 310.663558 137.535723 
L 309.501346 137.535723 
L 309.501346 134.186205 
L 308.339135 134.186205 
L 308.339135 139.210482 
L 307.176923 139.210482 
L 307.176923 140.885241 
L 306.014712 140.885241 
L 306.014712 134.186205 
L 304.8525 134.186205 
L 304.8525 139.210482 
L 303.690288 139.210482 
L 303.690288 139.210482 
L 302.528077 139.210482 
L 302.528077 127.487168 
L 301.365865 127.487168 
L 301.365865 134.186205 
L 300.203654 134.186205 
L 300.203654 139.210482 
L 299.041442 139.210482 
L 299.041442 139.210482 
L 297.879231 139.210482 
L 297.879231 132.511446 
L 296.717019 132.511446 
L 296.717019 130.836687 
L 295.554808 130.836687 
L 295.554808 139.210482 
L 294.392596 139.210482 
L 294.392596 127.487168 
L 293.230385 127.487168 
L 293.230385 139.210482 
L 292.068173 139.210482 
L 292.068173 132.511446 
L 290.905962 132.511446 
L 290.905962 135.860964 
L 289.74375 135.860964 
L 289.74375 135.860964 
L 288.581538 135.860964 
L 288.581538 137.535723 
L 287.419327 137.535723 
L 287.419327 135.860964 
L 286.257115 135.860964 
L 286.257115 140.885241 
L 285.094904 140.885241 
L 285.094904 140.885241 
L 283.932692 140.885241 
L 283.932692 139.210482 
L 282.770481 139.210482 
L 282.770481 132.511446 
L 281.608269 132.511446 
L 281.608269 134.186205 
L 280.446058 134.186205 
L 280.446058 135.860964 
L 279.283846 135.860964 
L 279.283846 140.885241 
L 278.121635 140.885241 
L 278.121635 132.511446 
L 276.959423 132.511446 
L 276.959423 135.860964 
L 275.797212 135.860964 
L 275.797212 142.56 
L 274.635 142.56 
L 274.635 140.885241 
L 273.472788 140.885241 
L 273.472788 130.836687 
L 272.310577 130.836687 
L 272.310577 139.210482 
L 271.148365 139.210482 
L 271.148365 140.885241 
L 269.986154 140.885241 
L 269.986154 137.535723 
L 268.823942 137.535723 
L 268.823942 140.885241 
L 267.661731 140.885241 
L 267.661731 135.860964 
L 266.499519 135.860964 
L 266.499519 139.210482 
L 265.337308 139.210482 
L 265.337308 139.210482 
L 264.175096 139.210482 
L 264.175096 140.885241 
L 263.012885 140.885241 
L 263.012885 142.56 
L 261.850673 142.56 
L 261.850673 139.210482 
L 260.688462 139.210482 
L 260.688462 139.210482 
L 259.52625 139.210482 
L 259.52625 139.210482 
L 258.364038 139.210482 
L 258.364038 140.885241 
L 257.201827 140.885241 
L 257.201827 140.885241 
L 256.039615 140.885241 
L 256.039615 139.210482 
L 254.877404 139.210482 
L 254.877404 139.210482 
L 253.715192 139.210482 
L 253.715192 142.56 
L 252.552981 142.56 
L 252.552981 142.56 
L 251.390769 142.56 
L 251.390769 137.535723 
L 250.228558 137.535723 
L 250.228558 137.535723 
L 249.066346 137.535723 
L 249.066346 134.186205 
L 247.904135 134.186205 
L 247.904135 137.535723 
L 246.741923 137.535723 
L 246.741923 139.210482 
L 245.579712 139.210482 
L 245.579712 132.511446 
L 244.4175 132.511446 
L 244.4175 117.438614 
L 243.255288 117.438614 
L 243.255288 137.535723 
L 242.093077 137.535723 
L 242.093077 139.210482 
L 240.930865 139.210482 
L 240.930865 135.860964 
L 239.768654 135.860964 
L 239.768654 139.210482 
L 238.606442 139.210482 
L 238.606442 137.535723 
L 237.444231 137.535723 
L 237.444231 134.186205 
L 236.282019 134.186205 
L 236.282019 124.13765 
L 235.119808 124.13765 
L 235.119808 132.511446 
L 233.957596 132.511446 
L 233.957596 139.210482 
L 232.795385 139.210482 
L 232.795385 140.885241 
L 231.633173 140.885241 
L 231.633173 132.511446 
L 230.470962 132.511446 
L 230.470962 137.535723 
L 229.30875 137.535723 
L 229.30875 139.210482 
L 228.146538 139.210482 
L 228.146538 142.56 
L 226.984327 142.56 
L 226.984327 140.885241 
L 225.822115 140.885241 
L 225.822115 134.186205 
L 224.659904 134.186205 
L 224.659904 134.186205 
L 223.497692 134.186205 
L 223.497692 137.535723 
L 222.335481 137.535723 
L 222.335481 132.511446 
L 221.173269 132.511446 
L 221.173269 137.535723 
L 220.011058 137.535723 
L 220.011058 139.210482 
L 218.848846 139.210482 
L 218.848846 137.535723 
L 217.686635 137.535723 
L 217.686635 137.535723 
L 216.524423 137.535723 
L 216.524423 140.885241 
L 215.362212 140.885241 
L 215.362212 137.535723 
L 214.2 137.535723 
L 214.2 142.56 
L 215.362212 142.56 
L 215.362212 142.56 
L 216.524423 142.56 
L 216.524423 142.56 
L 217.686635 142.56 
L 217.686635 142.56 
L 218.848846 142.56 
L 218.848846 142.56 
L 220.011058 142.56 
L 220.011058 142.56 
L 221.173269 142.56 
L 221.173269 142.56 
L 222.335481 142.56 
L 222.335481 142.56 
L 223.497692 142.56 
L 223.497692 142.56 
L 224.659904 142.56 
L 224.659904 142.56 
L 225.822115 142.56 
L 225.822115 142.56 
L 226.984327 142.56 
L 226.984327 142.56 
L 228.146538 142.56 
L 228.146538 142.56 
L 229.30875 142.56 
L 229.30875 142.56 
L 230.470962 142.56 
L 230.470962 142.56 
L 231.633173 142.56 
L 231.633173 142.56 
L 232.795385 142.56 
L 232.795385 142.56 
L 233.957596 142.56 
L 233.957596 142.56 
L 235.119808 142.56 
L 235.119808 142.56 
L 236.282019 142.56 
L 236.282019 142.56 
L 237.444231 142.56 
L 237.444231 142.56 
L 238.606442 142.56 
L 238.606442 142.56 
L 239.768654 142.56 
L 239.768654 142.56 
L 240.930865 142.56 
L 240.930865 142.56 
L 242.093077 142.56 
L 242.093077 142.56 
L 243.255288 142.56 
L 243.255288 142.56 
L 244.4175 142.56 
L 244.4175 142.56 
L 245.579712 142.56 
L 245.579712 142.56 
L 246.741923 142.56 
L 246.741923 142.56 
L 247.904135 142.56 
L 247.904135 142.56 
L 249.066346 142.56 
L 249.066346 142.56 
L 250.228558 142.56 
L 250.228558 142.56 
L 251.390769 142.56 
L 251.390769 142.56 
L 252.552981 142.56 
L 252.552981 142.56 
L 253.715192 142.56 
L 253.715192 142.56 
L 254.877404 142.56 
L 254.877404 142.56 
L 256.039615 142.56 
L 256.039615 142.56 
L 257.201827 142.56 
L 257.201827 142.56 
L 258.364038 142.56 
L 258.364038 142.56 
L 259.52625 142.56 
L 259.52625 142.56 
L 260.688462 142.56 
L 260.688462 142.56 
L 261.850673 142.56 
L 261.850673 142.56 
L 263.012885 142.56 
L 263.012885 142.56 
L 264.175096 142.56 
L 264.175096 142.56 
L 265.337308 142.56 
L 265.337308 142.56 
L 266.499519 142.56 
L 266.499519 142.56 
L 267.661731 142.56 
L 267.661731 142.56 
L 268.823942 142.56 
L 268.823942 142.56 
L 269.986154 142.56 
L 269.986154 142.56 
L 271.148365 142.56 
L 271.148365 142.56 
L 272.310577 142.56 
L 272.310577 142.56 
L 273.472788 142.56 
L 273.472788 142.56 
L 274.635 142.56 
L 274.635 142.56 
L 275.797212 142.56 
L 275.797212 142.56 
L 276.959423 142.56 
L 276.959423 142.56 
L 278.121635 142.56 
L 278.121635 142.56 
L 279.283846 142.56 
L 279.283846 142.56 
L 280.446058 142.56 
L 280.446058 142.56 
L 281.608269 142.56 
L 281.608269 142.56 
L 282.770481 142.56 
L 282.770481 142.56 
L 283.932692 142.56 
L 283.932692 142.56 
L 285.094904 142.56 
L 285.094904 142.56 
L 286.257115 142.56 
L 286.257115 142.56 
L 287.419327 142.56 
L 287.419327 142.56 
L 288.581538 142.56 
L 288.581538 142.56 
L 289.74375 142.56 
L 289.74375 142.56 
L 290.905962 142.56 
L 290.905962 142.56 
L 292.068173 142.56 
L 292.068173 142.56 
L 293.230385 142.56 
L 293.230385 142.56 
L 294.392596 142.56 
L 294.392596 142.56 
L 295.554808 142.56 
L 295.554808 142.56 
L 296.717019 142.56 
L 296.717019 142.56 
L 297.879231 142.56 
L 297.879231 142.56 
L 299.041442 142.56 
L 299.041442 142.56 
L 300.203654 142.56 
L 300.203654 142.56 
L 301.365865 142.56 
L 301.365865 142.56 
L 302.528077 142.56 
L 302.528077 142.56 
L 303.690288 142.56 
L 303.690288 142.56 
L 304.8525 142.56 
L 304.8525 142.56 
L 306.014712 142.56 
L 306.014712 142.56 
L 307.176923 142.56 
L 307.176923 142.56 
L 308.339135 142.56 
L 308.339135 142.56 
L 309.501346 142.56 
L 309.501346 142.56 
L 310.663558 142.56 
L 310.663558 142.56 
L 311.825769 142.56 
L 311.825769 142.56 
L 312.987981 142.56 
L 312.987981 142.56 
L 314.150192 142.56 
L 314.150192 142.56 
L 315.312404 142.56 
L 315.312404 142.56 
L 316.474615 142.56 
L 316.474615 142.56 
L 317.636827 142.56 
L 317.636827 142.56 
L 318.799038 142.56 
L 318.799038 142.56 
L 319.96125 142.56 
L 319.96125 142.56 
L 321.123462 142.56 
L 321.123462 142.56 
L 322.285673 142.56 
L 322.285673 142.56 
L 323.447885 142.56 
L 323.447885 142.56 
L 324.610096 142.56 
L 324.610096 142.56 
L 325.772308 142.56 
L 325.772308 142.56 
L 326.934519 142.56 
L 326.934519 142.56 
L 328.096731 142.56 
L 328.096731 142.56 
L 329.258942 142.56 
L 329.258942 142.56 
L 330.421154 142.56 
L 330.421154 142.56 
L 331.583365 142.56 
L 331.583365 142.56 
L 332.745577 142.56 
L 332.745577 142.56 
L 333.907788 142.56 
L 333.907788 142.56 
L 335.07 142.56 
L 335.07 142.56 
L 336.232212 142.56 
L 336.232212 142.56 
L 337.394423 142.56 
L 337.394423 142.56 
L 338.556635 142.56 
L 338.556635 142.56 
L 339.718846 142.56 
L 339.718846 142.56 
L 340.881058 142.56 
L 340.881058 142.56 
L 342.043269 142.56 
L 342.043269 142.56 
L 343.205481 142.56 
L 343.205481 142.56 
L 344.367692 142.56 
L 344.367692 142.56 
L 345.529904 142.56 
L 345.529904 142.56 
L 346.692115 142.56 
L 346.692115 142.56 
L 347.854327 142.56 
L 347.854327 142.56 
L 349.016538 142.56 
L 349.016538 142.56 
L 350.17875 142.56 
L 350.17875 142.56 
L 351.340962 142.56 
L 351.340962 142.56 
L 352.503173 142.56 
L 352.503173 142.56 
L 353.665385 142.56 
L 353.665385 142.56 
L 354.827596 142.56 
L 354.827596 142.56 
L 355.989808 142.56 
L 355.989808 142.56 
L 357.152019 142.56 
L 357.152019 142.56 
L 358.314231 142.56 
L 358.314231 142.56 
L 359.476442 142.56 
L 359.476442 142.56 
L 360.638654 142.56 
L 360.638654 142.56 
L 361.800865 142.56 
L 361.800865 142.56 
L 362.963077 142.56 
L 362.963077 142.56 
L 364.125288 142.56 
L 364.125288 142.56 
L 365.2875 142.56 
L 365.2875 142.56 
L 366.449712 142.56 
L 366.449712 142.56 
L 367.611923 142.56 
L 367.611923 142.56 
L 368.774135 142.56 
L 368.774135 142.56 
L 369.936346 142.56 
L 369.936346 142.56 
L 371.098558 142.56 
L 371.098558 142.56 
L 372.260769 142.56 
L 372.260769 142.56 
L 373.422981 142.56 
L 373.422981 142.56 
L 374.585192 142.56 
L 374.585192 142.56 
L 375.747404 142.56 
L 375.747404 142.56 
L 376.909615 142.56 
L 376.909615 142.56 
L 378.071827 142.56 
L 378.071827 142.56 
L 379.234038 142.56 
L 379.234038 142.56 
L 380.39625 142.56 
L 380.39625 142.56 
L 381.558462 142.56 
L 381.558462 142.56 
L 382.720673 142.56 
L 382.720673 142.56 
L 383.882885 142.56 
L 383.882885 142.56 
L 385.045096 142.56 
L 385.045096 142.56 
L 386.207308 142.56 
L 386.207308 142.56 
L 387.369519 142.56 
L 387.369519 142.56 
L 388.531731 142.56 
L 388.531731 142.56 
L 389.693942 142.56 
L 389.693942 142.56 
L 390.856154 142.56 
L 390.856154 142.56 
L 392.018365 142.56 
L 392.018365 142.56 
L 393.180577 142.56 
L 393.180577 142.56 
L 394.342788 142.56 
L 394.342788 142.56 
L 395.505 142.56 
L 395.505 142.56 
L 396.667212 142.56 
L 396.667212 142.56 
L 397.829423 142.56 
L 397.829423 142.56 
L 398.991635 142.56 
L 398.991635 142.56 
z
" clip-path="url(#p99b7f9c608)" style="fill: #60a5fa; opacity: 0.45; stroke: #60a5fa; stroke-width: 0.8; stroke-linejoin: miter"/>
   </g>
   <g id="matplotlib.axis_1">
    <g id="xtick_1">
     <g id="line2d_1">
      <defs>
       <path id="mc5a25edaa4" d="M 0 0 
L 0 3.5 
" style="stroke: #374151; stroke-width: 0.8"/>
      </defs>
      <g>
       <use xlink:href="#mc5a25edaa4" x="400.153846" y="142.56" style="fill: #374151; stroke: #374151; stroke-width: 0.8"/>
      </g>
     </g>
     <g id="line2d_2">
      <defs>
       <path id="m3c207916e2" d="M 0 0 
L 0 -3.5 
" style="stroke: #374151; stroke-width: 0.8"/>
      </defs>
      <g>
       <use xlink:href="#m3c207916e2" x="400.153846" y="116.182545" style="fill: #374151; stroke: #374151; stroke-width: 0.8"/>
      </g>
     </g>
     <g id="text_1">
      <text style="fill: #374151; font: 7px 'DejaVu Sans'; text-anchor: middle" x="400.153846" y="152.378906" transform="rotate(-0 400.153846 152.378906)">150</text>
     </g>
     <g id="text_2">
      <text style="fill: #374151; font: 7px 'DejaVu Sans'; text-anchor: middle" x="400.153846" y="110.226764" transform="rotate(-0 400.153846 110.226764)">150</text>
     </g>
    </g>
    <g id="xtick_2">
     <g id="line2d_3">
      <g>
       <use xlink:href="#mc5a25edaa4" x="362.963077" y="142.56" style="fill: #374151; stroke: #374151; stroke-width: 0.8"/>
      </g>
     </g>
     <g id="line2d_4">
      <g>
       <use xlink:href="#m3c207916e2" x="362.963077" y="116.182545" style="fill: #374151; stroke: #374151; stroke-width: 0.8"/>
      </g>
     </g>
     <g id="text_3">
      <text style="fill: #374151; font: 7px 'DejaVu Sans'; text-anchor: middle" x="362.963077" y="152.378906" transform="rotate(-0 362.963077 152.378906)">160</text>
     </g>
     <g id="text_4">
      <text style="fill: #374151; font: 7px 'DejaVu Sans'; text-anchor: middle" x="362.963077" y="110.226764" transform="rotate(-0 362.963077 110.226764)">160</text>
     </g>
    </g>
    <g id="xtick_3">
     <g id="line2d_5">
      <g>
       <use xlink:href="#mc5a25edaa4" x="325.772308" y="142.56" style="fill: #374151; stroke: #374151; stroke-width: 0.8"/>
      </g>
     </g>
     <g id="line2d_6">
      <g>
       <use xlink:href="#m3c207916e2" x="325.772308" y="116.182545" style="fill: #374151; stroke: #374151; stroke-width: 0.8"/>
      </g>
     </g>
     <g id="text_5">
      <text style="fill: #374151; font: 7px 'DejaVu Sans'; text-anchor: middle" x="325.772308" y="152.378906" transform="rotate(-0 325.772308 152.378906)">170</text>
     </g>
     <g id="text_6">
      <text style="fill: #374151; font: 7px 'DejaVu Sans'; text-anchor: middle" x="325.772308" y="110.226764" transform="rotate(-0 325.772308 110.226764)">170</text>
     </g>
    </g>
    <g id="xtick_4">
     <g id="line2d_7">
      <g>
       <use xlink:href="#mc5a25edaa4" x="288.581538" y="142.56" style="fill: #374151; stroke: #374151; stroke-width: 0.8"/>
      </g>
     </g>
     <g id="line2d_8">
      <g>
       <use xlink:href="#m3c207916e2" x="288.581538" y="116.182545" style="fill: #374151; stroke: #374151; stroke-width: 0.8"/>
      </g>
     </g>
     <g id="text_7">
      <text style="fill: #374151; font: 7px 'DejaVu Sans'; text-anchor: middle" x="288.581538" y="152.378906" transform="rotate(-0 288.581538 152.378906)">180</text>
     </g>
     <g id="text_8">
      <text style="fill: #374151; font: 7px 'DejaVu Sans'; text-anchor: middle" x="288.581538" y="110.226764" transform="rotate(-0 288.581538 110.226764)">180</text>
     </g>
    </g>
    <g id="xtick_5">
     <g id="line2d_9">
      <g>
       <use xlink:href="#mc5a25edaa4" x="251.390769" y="142.56" style="fill: #374151; stroke: #374151; stroke-width: 0.8"/>
      </g>
     </g>
     <g id="line2d_10">
      <g>
       <use xlink:href="#m3c207916e2" x="251.390769" y="116.182545" style="fill: #374151; stroke: #374151; stroke-width: 0.8"/>
      </g>
     </g>
     <g id="text_9">
      <text style="fill: #374151; font: 7px 'DejaVu Sans'; text-anchor: middle" x="251.390769" y="152.378906" transform="rotate(-0 251.390769 152.378906)">190</text>
     </g>
     <g id="text_10">
      <text style="fill: #374151; font: 7px 'DejaVu Sans'; text-anchor: middle" x="251.390769" y="110.226764" transform="rotate(-0 251.390769 110.226764)">190</text>
     </g>
    </g>
    <g id="xtick_6">
     <g id="line2d_11">
      <g>
       <use xlink:href="#mc5a25edaa4" x="214.2" y="142.56" style="fill: #374151; stroke: #374151; stroke-width: 0.8"/>
      </g>
     </g>
     <g id="line2d_12">
      <g>
       <use xlink:href="#m3c207916e2" x="214.2" y="116.182545" style="fill: #374151; stroke: #374151; stroke-width: 0.8"/>
      </g>
     </g>
     <g id="text_11">
      <text style="fill: #374151; font: 7px 'DejaVu Sans'; text-anchor: middle" x="214.2" y="152.378906" transform="rotate(-0 214.2 152.378906)">200</text>
     </g>
     <g id="text_12">
      <text style="fill: #374151; font: 7px 'DejaVu Sans'; text-anchor: middle" x="214.2" y="110.226764" transform="rotate(-0 214.2 110.226764)">200</text>
     </g>
    </g>
    <g id="xtick_7">
     <g id="line2d_13">
      <defs>
       <path id="m7dabd4d3ae" d="M 0 0 
L 0 2 
" style="stroke: #374151; stroke-width: 0.5"/>
      </defs>
      <g>
       <use xlink:href="#m7dabd4d3ae" x="396.434769" y="142.56" style="fill: #374151; stroke: #374151; stroke-width: 0.5"/>
      </g>
     </g>
    </g>
    <g id="xtick_8">
     <g id="line2d_14">
      <g>
       <use xlink:href="#m7dabd4d3ae" x="392.715692" y="142.56" style="fill: #374151; stroke: #374151; stroke-width: 0.5"/>
      </g>
     </g>
    </g>
    <g id="xtick_9">
     <g id="line2d_15">
      <g>
       <use xlink:href="#m7dabd4d3ae" x="388.996615" y="142.56" style="fill: #374151; stroke: #374151; stroke-width: 0.5"/>
      </g>
     </g>
    </g>
    <g id="xtick_10">
     <g id="line2d_16">
      <g>
       <use xlink:href="#m7dabd4d3ae" x="385.277538" y="142.56" style="fill: #374151; stroke: #374151; stroke-width: 0.5"/>
      </g>
     </g>
    </g>
    <g id="xtick_11">
     <g id="line2d_17">
      <g>
       <use xlink:href="#m7dabd4d3ae" x="381.558462" y="142.56" style="fill: #374151; stroke: #374151; stroke-width: 0.5"/>
      </g>
     </g>
    </g>
    <g id="xtick_12">
     <g id="line2d_18">
      <g>
       <use xlink:href="#m7dabd4d3ae" x="377.839385" y="142.56" style="fill: #374151; stroke: #374151; stroke-width: 0.5"/>
      </g>
     </g>
    </g>
    <g id="xtick_13">
     <g id="line2d_19">
      <g>
       <use xlink:href="#m7dabd4d3ae" x="374.120308" y="142.56" style="fill: #374151; stroke: #374151; stroke-width: 0.5"/>
      </g>
     </g>
    </g>
    <g id="xtick_14">
     <g id="line2d_20">
      <g>
       <use xlink:href="#m7dabd4d3ae" x="370.401231" y="142.56" style="fill: #374151; stroke: #374151; stroke-width: 0.5"/>
      </g>
     </g>
    </g>
    <g id="xtick_15">
     <g id="line2d_21">
      <g>
       <use xlink:href="#m7dabd4d3ae" x="366.682154" y="142.56" style="fill: #374151; stroke: #374151; stroke-width: 0.5"/>
      </g>
     </g>
    </g>
    <g id="xtick_16">
     <g id="line2d_22">
      <g>
       <use xlink:href="#m7dabd4d3ae" x="359.244" y="142.56" style="fill: #374151; stroke: #374151; stroke-width: 0.5"/>
      </g>
     </g>
    </g>
    <g id="xtick_17">
     <g id="line2d_23">
      <g>
       <use xlink:href="#m7dabd4d3ae" x="355.524923" y="142.56" style="fill: #374151; stroke: #374151; stroke-width: 0.5"/>
      </g>
     </g>
    </g>
    <g id="xtick_18">
     <g id="line2d_24">
      <g>
       <use xlink:href="#m7dabd4d3ae" x="351.805846" y="142.56" style="fill: #374151; stroke: #374151; stroke-width: 0.5"/>
      </g>
     </g>
    </g>
    <g id="xtick_19">
     <g id="line2d_25">
      <g>
       <use xlink:href="#m7dabd4d3ae" x="348.086769" y="142.56" style="fill: #374151; stroke: #374151; stroke-width: 0.5"/>
      </g>
     </g>
    </g>
    <g id="xtick_20">
     <g id="line2d_26">
      <g>
       <use xlink:href="#m7dabd4d3ae" x="344.367692" y="142.56" style="fill: #374151; stroke: #374151; stroke-width: 0.5"/>
      </g>
     </g>
    </g>
    <g id="xtick_21">
     <g id="line2d_27">
      <g>
       <use xlink:href="#m7dabd4d3ae" x="340.648615" y="142.56" style="fill: #374151; stroke: #374151; stroke-width: 0.5"/>
      </g>
     </g>
    </g>
    <g id="xtick_22">
     <g id="line2d_28">
      <g>
       <use xlink:href="#m7dabd4d3ae" x="336.929538" y="142.56" style="fill: #374151; stroke: #374151; stroke-width: 0.5"/>
      </g>
     </g>
    </g>
    <g id="xtick_23">
     <g id="line2d_29">
      <g>
       <use xlink:href="#m7dabd4d3ae" x="333.210462" y="142.56" style="fill: #374151; stroke: #374151; stroke-width: 0.5"/>
      </g>
     </g>
    </g>
    <g id="xtick_24">
     <g id="line2d_30">
      <g>
       <use xlink:href="#m7dabd4d3ae" x="329.491385" y="142.56" style="fill: #374151; stroke: #374151; stroke-width: 0.5"/>
      </g>
     </g>
    </g>
    <g id="xtick_25">
     <g id="line2d_31">
      <g>
       <use xlink:href="#m7dabd4d3ae" x="322.053231" y="142.56" style="fill: #374151; stroke: #374151; stroke-width: 0.5"/>
      </g>
     </g>
    </g>
    <g id="xtick_26">
     <g id="line2d_32">
      <g>
       <use xlink:href="#m7dabd4d3ae" x="318.334154" y="142.56" style="fill: #374151; stroke: #374151; stroke-width: 0.5"/>
      </g>
     </g>
    </g>
    <g id="xtick_27">
     <g id="line2d_33">
      <g>
       <use xlink:href="#m7dabd4d3ae" x="314.615077" y="142.56" style="fill: #374151; stroke: #374151; stroke-width: 0.5"/>
      </g>
     </g>
    </g>
    <g id="xtick_28">
     <g id="line2d_34">
      <g>
       <use xlink:href="#m7dabd4d3ae" x="310.896" y="142.56" style="fill: #374151; stroke: #374151; stroke-width: 0.5"/>
      </g>
     </g>
    </g>
    <g id="xtick_29">
     <g id="line2d_35">
      <g>
       <use xlink:href="#m7dabd4d3ae" x="307.176923" y="142.56" style="fill: #374151; stroke: #374151; stroke-width: 0.5"/>
      </g>
     </g>
    </g>
    <g id="xtick_30">
     <g id="line2d_36">
      <g>
       <use xlink:href="#m7dabd4d3ae" x="303.457846" y="142.56" style="fill: #374151; stroke: #374151; stroke-width: 0.5"/>
      </g>
     </g>
    </g>
    <g id="xtick_31">
     <g id="line2d_37">
      <g>
       <use xlink:href="#m7dabd4d3ae" x="299.738769" y="142.56" style="fill: #374151; stroke: #374151; stroke-width: 0.5"/>
      </g>
     </g>
    </g>
    <g id="xtick_32">
     <g id="line2d_38">
      <g>
       <use xlink:href="#m7dabd4d3ae" x="296.019692" y="142.56" style="fill: #374151; stroke: #374151; stroke-width: 0.5"/>
      </g>
     </g>
    </g>
    <g id="xtick_33">
     <g id="line2d_39">
      <g>
       <use xlink:href="#m7dabd4d3ae" x="292.300615" y="142.56" style="fill: #374151; stroke: #374151; stroke-width: 0.5"/>
      </g>
     </g>
    </g>
    <g id="xtick_34">
     <g id="line2d_40">
      <g>
       <use xlink:href="#m7dabd4d3ae" x="284.862462" y="142.56" style="fill: #374151; stroke: #374151; stroke-width: 0.5"/>
      </g>
     </g>
    </g>
    <g id="xtick_35">
     <g id="line2d_41">
      <g>
       <use xlink:href="#m7dabd4d3ae" x="281.143385" y="142.56" style="fill: #374151; stroke: #374151; stroke-width: 0.5"/>
      </g>
     </g>
    </g>
    <g id="xtick_36">
     <g id="line2d_42">
      <g>
       <use xlink:href="#m7dabd4d3ae" x="277.424308" y="142.56" style="fill: #374151; stroke: #374151; stroke-width: 0.5"/>
      </g>
     </g>
    </g>
    <g id="xtick_37">
     <g id="line2d_43">
      <g>
       <use xlink:href="#m7dabd4d3ae" x="273.705231" y="142.56" style="fill: #374151; stroke: #374151; stroke-width: 0.5"/>
      </g>
     </g>
    </g>
    <g id="xtick_38">
     <g id="line2d_44">
      <g>
       <use xlink:href="#m7dabd4d3ae" x="269.986154" y="142.56" style="fill: #374151; stroke: #374151; stroke-width: 0.5"/>
      </g>
     </g>
    </g>
    <g id="xtick_39">
     <g id="line2d_45">
      <g>
       <use xlink:href="#m7dabd4d3ae" x="266.267077" y="142.56" style="fill: #374151; stroke: #374151; stroke-width: 0.5"/>
      </g>
     </g>
    </g>
    <g id="xtick_40">
     <g id="line2d_46">
      <g>
       <use xlink:href="#m7dabd4d3ae" x="262.548" y="142.56" style="fill: #374151; stroke: #374151; stroke-width: 0.5"/>
      </g>
     </g>
    </g>
    <g id="xtick_41">
     <g id="line2d_47">
      <g>
       <use xlink:href="#m7dabd4d3ae" x="258.828923" y="142.56" style="fill: #374151; stroke: #374151; stroke-width: 0.5"/>
      </g>
     </g>
    </g>
    <g id="xtick_42">
     <g id="line2d_48">
      <g>
       <use xlink:href="#m7dabd4d3ae" x="255.109846" y="142.56" style="fill: #374151; stroke: #374151; stroke-width: 0.5"/>
      </g>
     </g>
    </g>
    <g id="xtick_43">
     <g id="line2d_49">
      <g>
       <use xlink:href="#m7dabd4d3ae" x="247.671692" y="142.56" style="fill: #374151; stroke: #374151; stroke-width: 0.5"/>
      </g>
     </g>
    </g>
    <g id="xtick_44">
     <g id="line2d_50">
      <g>
       <use xlink:href="#m7dabd4d3ae" x="243.952615" y="142.56" style="fill: #374151; stroke: #374151; stroke-width: 0.5"/>
      </g>
     </g>
    </g>
    <g id="xtick_45">
     <g id="line2d_51">
      <g>
       <use xlink:href="#m7dabd4d3ae" x="240.233538" y="142.56" style="fill: #374151; stroke: #374151; stroke-width: 0.5"/>
      </g>
     </g>
    </g>
    <g id="xtick_46">
     <g id="line2d_52">
      <g>
       <use xlink:href="#m7dabd4d3ae" x="236.514462" y="142.56" style="fill: #374151; stroke: #374151; stroke-width: 0.5"/>
      </g>
     </g>
    </g>
    <g id="xtick_47">
     <g id="line2d_53">
      <g>
       <use xlink:href="#m7dabd4d3ae" x="232.795385" y="142.56" style="fill: #374151; stroke: #374151; stroke-width: 0.5"/>
      </g>
     </g>
    </g>
    <g id="xtick_48">
     <g id="line2d_54">
      <g>
       <use xlink:href="#m7dabd4d3ae" x="229.076308" y="142.56" style="fill: #374151; stroke: #374151; stroke-width: 0.5"/>
      </g>
     </g>
    </g>
    <g id="xtick_49">
     <g id="line2d_55">
      <g>
       <use xlink:href="#m7dabd4d3ae" x="225.357231" y="142.56" style="fill: #374151; stroke: #374151; stroke-width: 0.5"/>
      </g>
     </g>
    </g>
    <g id="xtick_50">
     <g id="line2d_56">
      <g>
       <use xlink:href="#m7dabd4d3ae" x="221.638154" y="142.56" style="fill: #374151; stroke: #374151; stroke-width: 0.5"/>
      </g>
     </g>
    </g>
    <g id="xtick_51">
     <g id="line2d_57">
      <g>
       <use xlink:href="#m7dabd4d3ae" x="217.919077" y="142.56" style="fill: #374151; stroke: #374151; stroke-width: 0.5"/>
      </g>
     </g>
    </g>
    <g id="text_13">
     <text style="fill: #374151; font: 9px 'DejaVu Sans'; text-anchor: middle" x="307.176923" y="164.673281" transform="rotate(-0 307.176923 164.673281)">Nitrogen Chemical Shift (ppm)</text>
    </g>
   </g>
   <g id="matplotlib.axis_2">
    <g id="ytick_1"/>
    <g id="ytick_2"/>
   </g>
   <g id="patch_4">
    <path d="M 214.2 142.56 
L 214.2 116.182545 
" style="fill: none; stroke: #374151; stroke-width: 0.8; stroke-linejoin: miter; stroke-linecap: square"/>
   </g>
   <g id="patch_5">
    <path d="M 400.153846 142.56 
L 400.153846 116.182545 
" style="fill: none; stroke: #374151; stroke-width: 0.8; stroke-linejoin: miter; stroke-linecap: square"/>
   </g>
   <g id="patch_6">
    <path d="M 214.2 142.56 
L 400.153846 142.56 
" style="fill: none; stroke: #374151; stroke-width: 0.8; stroke-linejoin: miter; stroke-linecap: square"/>
   </g>
   <g id="patch_7">
    <path d="M 214.2 116.182545 
L 400.153846 116.182545 
" style="fill: none; stroke: #374151; stroke-width: 0.8; stroke-linejoin: miter; stroke-linecap: square"/>
   </g>
   <g id="text_14">
    <text style="fill: #111827; font: 600 8.2px 'DejaVu Serif'; text-anchor: end" x="191.885538" y="131.63396" transform="rotate(-0 191.885538 131.63396)">HIS ND1 / NE2</text>
   </g>
  </g>
  <g id="axes_2">
   <g id="patch_8">
    <path d="M 400.153846 142.56 
L 400.153846 142.56 
L 398.991635 142.56 
L 398.991635 142.56 
L 397.829423 142.56 
L 397.829423 142.56 
L 396.667212 142.56 
L 396.667212 141.467766 
L 395.505 141.467766 
L 395.505 142.56 
L 394.342788 142.56 
L 394.342788 142.56 
L 393.180577 142.56 
L 393.180577 142.56 
L 392.018365 142.56 
L 392.018365 142.56 
L 390.856154 142.56 
L 390.856154 142.56 
L 389.693942 142.56 
L 389.693942 142.56 
L 388.531731 142.56 
L 388.531731 142.56 
L 387.369519 142.56 
L 387.369519 142.56 
L 386.207308 142.56 
L 386.207308 142.56 
L 385.045096 142.56 
L 385.045096 142.56 
L 383.882885 142.56 
L 383.882885 142.56 
L 382.720673 142.56 
L 382.720673 142.56 
L 381.558462 142.56 
L 381.558462 142.56 
L 380.39625 142.56 
L 380.39625 142.56 
L 379.234038 142.56 
L 379.234038 142.56 
L 378.071827 142.56 
L 378.071827 142.56 
L 376.909615 142.56 
L 376.909615 142.56 
L 375.747404 142.56 
L 375.747404 142.56 
L 374.585192 142.56 
L 374.585192 142.56 
L 373.422981 142.56 
L 373.422981 142.56 
L 372.260769 142.56 
L 372.260769 142.56 
L 371.098558 142.56 
L 371.098558 142.56 
L 369.936346 142.56 
L 369.936346 142.56 
L 368.774135 142.56 
L 368.774135 140.375532 
L 367.611923 140.375532 
L 367.611923 142.56 
L 366.449712 142.56 
L 366.449712 142.56 
L 365.2875 142.56 
L 365.2875 142.56 
L 364.125288 142.56 
L 364.125288 141.467766 
L 362.963077 141.467766 
L 362.963077 142.56 
L 361.800865 142.56 
L 361.800865 142.56 
L 360.638654 142.56 
L 360.638654 142.56 
L 359.476442 142.56 
L 359.476442 141.467766 
L 358.314231 141.467766 
L 358.314231 140.375532 
L 357.152019 140.375532 
L 357.152019 141.467766 
L 355.989808 141.467766 
L 355.989808 140.375532 
L 354.827596 140.375532 
L 354.827596 139.283297 
L 353.665385 139.283297 
L 353.665385 142.56 
L 352.503173 142.56 
L 352.503173 141.467766 
L 351.340962 141.467766 
L 351.340962 132.729892 
L 350.17875 132.729892 
L 350.17875 139.283297 
L 349.016538 139.283297 
L 349.016538 137.098829 
L 347.854327 137.098829 
L 347.854327 137.098829 
L 346.692115 137.098829 
L 346.692115 137.098829 
L 345.529904 137.098829 
L 345.529904 138.191063 
L 344.367692 138.191063 
L 344.367692 129.45319 
L 343.205481 129.45319 
L 343.205481 134.914361 
L 342.043269 134.914361 
L 342.043269 139.283297 
L 340.881058 139.283297 
L 340.881058 136.006595 
L 339.718846 136.006595 
L 339.718846 136.006595 
L 338.556635 136.006595 
L 338.556635 128.360956 
L 337.394423 128.360956 
L 337.394423 131.637658 
L 336.232212 131.637658 
L 336.232212 132.729892 
L 335.07 132.729892 
L 335.07 131.637658 
L 333.907788 131.637658 
L 333.907788 133.822127 
L 332.745577 133.822127 
L 332.745577 130.545424 
L 331.583365 130.545424 
L 331.583365 136.006595 
L 330.421154 136.006595 
L 330.421154 140.375532 
L 329.258942 140.375532 
L 329.258942 136.006595 
L 328.096731 136.006595 
L 328.096731 134.914361 
L 326.934519 134.914361 
L 326.934519 131.637658 
L 325.772308 131.637658 
L 325.772308 128.360956 
L 324.610096 128.360956 
L 324.610096 130.545424 
L 323.447885 130.545424 
L 323.447885 134.914361 
L 322.285673 134.914361 
L 322.285673 133.822127 
L 321.123462 133.822127 
L 321.123462 136.006595 
L 319.96125 136.006595 
L 319.96125 138.191063 
L 318.799038 138.191063 
L 318.799038 131.637658 
L 317.636827 131.637658 
L 317.636827 134.914361 
L 316.474615 134.914361 
L 316.474615 133.822127 
L 315.312404 133.822127 
L 315.312404 134.914361 
L 314.150192 134.914361 
L 314.150192 137.098829 
L 312.987981 137.098829 
L 312.987981 127.268722 
L 311.825769 127.268722 
L 311.825769 134.914361 
L 310.663558 134.914361 
L 310.663558 132.729892 
L 309.501346 132.729892 
L 309.501346 129.45319 
L 308.339135 129.45319 
L 308.339135 130.545424 
L 307.176923 130.545424 
L 307.176923 132.729892 
L 306.014712 132.729892 
L 306.014712 128.360956 
L 304.8525 128.360956 
L 304.8525 126.176487 
L 303.690288 126.176487 
L 303.690288 129.45319 
L 302.528077 129.45319 
L 302.528077 120.715317 
L 301.365865 120.715317 
L 301.365865 126.176487 
L 300.203654 126.176487 
L 300.203654 119.623082 
L 299.041442 119.623082 
L 299.041442 117.438614 
L 297.879231 117.438614 
L 297.879231 119.623082 
L 296.717019 119.623082 
L 296.717019 134.914361 
L 295.554808 134.914361 
L 295.554808 117.438614 
L 294.392596 117.438614 
L 294.392596 127.268722 
L 293.230385 127.268722 
L 293.230385 130.545424 
L 292.068173 130.545424 
L 292.068173 133.822127 
L 290.905962 133.822127 
L 290.905962 136.006595 
L 289.74375 136.006595 
L 289.74375 136.006595 
L 288.581538 136.006595 
L 288.581538 137.098829 
L 287.419327 137.098829 
L 287.419327 137.098829 
L 286.257115 137.098829 
L 286.257115 137.098829 
L 285.094904 137.098829 
L 285.094904 136.006595 
L 283.932692 136.006595 
L 283.932692 140.375532 
L 282.770481 140.375532 
L 282.770481 133.822127 
L 281.608269 133.822127 
L 281.608269 140.375532 
L 280.446058 140.375532 
L 280.446058 133.822127 
L 279.283846 133.822127 
L 279.283846 136.006595 
L 278.121635 136.006595 
L 278.121635 140.375532 
L 276.959423 140.375532 
L 276.959423 132.729892 
L 275.797212 132.729892 
L 275.797212 139.283297 
L 274.635 139.283297 
L 274.635 137.098829 
L 273.472788 137.098829 
L 273.472788 137.098829 
L 272.310577 137.098829 
L 272.310577 139.283297 
L 271.148365 139.283297 
L 271.148365 139.283297 
L 269.986154 139.283297 
L 269.986154 140.375532 
L 268.823942 140.375532 
L 268.823942 140.375532 
L 267.661731 140.375532 
L 267.661731 140.375532 
L 266.499519 140.375532 
L 266.499519 139.283297 
L 265.337308 139.283297 
L 265.337308 140.375532 
L 264.175096 140.375532 
L 264.175096 139.283297 
L 263.012885 139.283297 
L 263.012885 140.375532 
L 261.850673 140.375532 
L 261.850673 140.375532 
L 260.688462 140.375532 
L 260.688462 139.283297 
L 259.52625 139.283297 
L 259.52625 140.375532 
L 258.364038 140.375532 
L 258.364038 140.375532 
L 257.201827 140.375532 
L 257.201827 140.375532 
L 256.039615 140.375532 
L 256.039615 139.283297 
L 254.877404 139.283297 
L 254.877404 140.375532 
L 253.715192 140.375532 
L 253.715192 142.56 
L 252.552981 142.56 
L 252.552981 142.56 
L 251.390769 142.56 
L 251.390769 139.283297 
L 250.228558 139.283297 
L 250.228558 142.56 
L 249.066346 142.56 
L 249.066346 139.283297 
L 247.904135 139.283297 
L 247.904135 140.375532 
L 246.741923 140.375532 
L 246.741923 140.375532 
L 245.579712 140.375532 
L 245.579712 141.467766 
L 244.4175 141.467766 
L 244.4175 141.467766 
L 243.255288 141.467766 
L 243.255288 140.375532 
L 242.093077 140.375532 
L 242.093077 141.467766 
L 240.930865 141.467766 
L 240.930865 141.467766 
L 239.768654 141.467766 
L 239.768654 142.56 
L 238.606442 142.56 
L 238.606442 142.56 
L 237.444231 142.56 
L 237.444231 140.375532 
L 236.282019 140.375532 
L 236.282019 142.56 
L 235.119808 142.56 
L 235.119808 141.467766 
L 233.957596 141.467766 
L 233.957596 141.467766 
L 232.795385 141.467766 
L 232.795385 142.56 
L 231.633173 142.56 
L 231.633173 141.467766 
L 230.470962 141.467766 
L 230.470962 141.467766 
L 229.30875 141.467766 
L 229.30875 142.56 
L 228.146538 142.56 
L 228.146538 141.467766 
L 226.984327 141.467766 
L 226.984327 142.56 
L 225.822115 142.56 
L 225.822115 142.56 
L 224.659904 142.56 
L 224.659904 141.467766 
L 223.497692 141.467766 
L 223.497692 141.467766 
L 222.335481 141.467766 
L 222.335481 142.56 
L 221.173269 142.56 
L 221.173269 141.467766 
L 220.011058 141.467766 
L 220.011058 142.56 
L 218.848846 142.56 
L 218.848846 141.467766 
L 217.686635 141.467766 
L 217.686635 141.467766 
L 216.524423 141.467766 
L 216.524423 141.467766 
L 215.362212 141.467766 
L 215.362212 141.467766 
L 214.2 141.467766 
L 214.2 142.56 
L 215.362212 142.56 
L 215.362212 142.56 
L 216.524423 142.56 
L 216.524423 142.56 
L 217.686635 142.56 
L 217.686635 142.56 
L 218.848846 142.56 
L 218.848846 142.56 
L 220.011058 142.56 
L 220.011058 142.56 
L 221.173269 142.56 
L 221.173269 142.56 
L 222.335481 142.56 
L 222.335481 142.56 
L 223.497692 142.56 
L 223.497692 142.56 
L 224.659904 142.56 
L 224.659904 142.56 
L 225.822115 142.56 
L 225.822115 142.56 
L 226.984327 142.56 
L 226.984327 142.56 
L 228.146538 142.56 
L 228.146538 142.56 
L 229.30875 142.56 
L 229.30875 142.56 
L 230.470962 142.56 
L 230.470962 142.56 
L 231.633173 142.56 
L 231.633173 142.56 
L 232.795385 142.56 
L 232.795385 142.56 
L 233.957596 142.56 
L 233.957596 142.56 
L 235.119808 142.56 
L 235.119808 142.56 
L 236.282019 142.56 
L 236.282019 142.56 
L 237.444231 142.56 
L 237.444231 142.56 
L 238.606442 142.56 
L 238.606442 142.56 
L 239.768654 142.56 
L 239.768654 142.56 
L 240.930865 142.56 
L 240.930865 142.56 
L 242.093077 142.56 
L 242.093077 142.56 
L 243.255288 142.56 
L 243.255288 142.56 
L 244.4175 142.56 
L 244.4175 142.56 
L 245.579712 142.56 
L 245.579712 142.56 
L 246.741923 142.56 
L 246.741923 142.56 
L 247.904135 142.56 
L 247.904135 142.56 
L 249.066346 142.56 
L 249.066346 142.56 
L 250.228558 142.56 
L 250.228558 142.56 
L 251.390769 142.56 
L 251.390769 142.56 
L 252.552981 142.56 
L 252.552981 142.56 
L 253.715192 142.56 
L 253.715192 142.56 
L 254.877404 142.56 
L 254.877404 142.56 
L 256.039615 142.56 
L 256.039615 142.56 
L 257.201827 142.56 
L 257.201827 142.56 
L 258.364038 142.56 
L 258.364038 142.56 
L 259.52625 142.56 
L 259.52625 142.56 
L 260.688462 142.56 
L 260.688462 142.56 
L 261.850673 142.56 
L 261.850673 142.56 
L 263.012885 142.56 
L 263.012885 142.56 
L 264.175096 142.56 
L 264.175096 142.56 
L 265.337308 142.56 
L 265.337308 142.56 
L 266.499519 142.56 
L 266.499519 142.56 
L 267.661731 142.56 
L 267.661731 142.56 
L 268.823942 142.56 
L 268.823942 142.56 
L 269.986154 142.56 
L 269.986154 142.56 
L 271.148365 142.56 
L 271.148365 142.56 
L 272.310577 142.56 
L 272.310577 142.56 
L 273.472788 142.56 
L 273.472788 142.56 
L 274.635 142.56 
L 274.635 142.56 
L 275.797212 142.56 
L 275.797212 142.56 
L 276.959423 142.56 
L 276.959423 142.56 
L 278.121635 142.56 
L 278.121635 142.56 
L 279.283846 142.56 
L 279.283846 142.56 
L 280.446058 142.56 
L 280.446058 142.56 
L 281.608269 142.56 
L 281.608269 142.56 
L 282.770481 142.56 
L 282.770481 142.56 
L 283.932692 142.56 
L 283.932692 142.56 
L 285.094904 142.56 
L 285.094904 142.56 
L 286.257115 142.56 
L 286.257115 142.56 
L 287.419327 142.56 
L 287.419327 142.56 
L 288.581538 142.56 
L 288.581538 142.56 
L 289.74375 142.56 
L 289.74375 142.56 
L 290.905962 142.56 
L 290.905962 142.56 
L 292.068173 142.56 
L 292.068173 142.56 
L 293.230385 142.56 
L 293.230385 142.56 
L 294.392596 142.56 
L 294.392596 142.56 
L 295.554808 142.56 
L 295.554808 142.56 
L 296.717019 142.56 
L 296.717019 142.56 
L 297.879231 142.56 
L 297.879231 142.56 
L 299.041442 142.56 
L 299.041442 142.56 
L 300.203654 142.56 
L 300.203654 142.56 
L 301.365865 142.56 
L 301.365865 142.56 
L 302.528077 142.56 
L 302.528077 142.56 
L 303.690288 142.56 
L 303.690288 142.56 
L 304.8525 142.56 
L 304.8525 142.56 
L 306.014712 142.56 
L 306.014712 142.56 
L 307.176923 142.56 
L 307.176923 142.56 
L 308.339135 142.56 
L 308.339135 142.56 
L 309.501346 142.56 
L 309.501346 142.56 
L 310.663558 142.56 
L 310.663558 142.56 
L 311.825769 142.56 
L 311.825769 142.56 
L 312.987981 142.56 
L 312.987981 142.56 
L 314.150192 142.56 
L 314.150192 142.56 
L 315.312404 142.56 
L 315.312404 142.56 
L 316.474615 142.56 
L 316.474615 142.56 
L 317.636827 142.56 
L 317.636827 142.56 
L 318.799038 142.56 
L 318.799038 142.56 
L 319.96125 142.56 
L 319.96125 142.56 
L 321.123462 142.56 
L 321.123462 142.56 
L 322.285673 142.56 
L 322.285673 142.56 
L 323.447885 142.56 
L 323.447885 142.56 
L 324.610096 142.56 
L 324.610096 142.56 
L 325.772308 142.56 
L 325.772308 142.56 
L 326.934519 142.56 
L 326.934519 142.56 
L 328.096731 142.56 
L 328.096731 142.56 
L 329.258942 142.56 
L 329.258942 142.56 
L 330.421154 142.56 
L 330.421154 142.56 
L 331.583365 142.56 
L 331.583365 142.56 
L 332.745577 142.56 
L 332.745577 142.56 
L 333.907788 142.56 
L 333.907788 142.56 
L 335.07 142.56 
L 335.07 142.56 
L 336.232212 142.56 
L 336.232212 142.56 
L 337.394423 142.56 
L 337.394423 142.56 
L 338.556635 142.56 
L 338.556635 142.56 
L 339.718846 142.56 
L 339.718846 142.56 
L 340.881058 142.56 
L 340.881058 142.56 
L 342.043269 142.56 
L 342.043269 142.56 
L 343.205481 142.56 
L 343.205481 142.56 
L 344.367692 142.56 
L 344.367692 142.56 
L 345.529904 142.56 
L 345.529904 142.56 
L 346.692115 142.56 
L 346.692115 142.56 
L 347.854327 142.56 
L 347.854327 142.56 
L 349.016538 142.56 
L 349.016538 142.56 
L 350.17875 142.56 
L 350.17875 142.56 
L 351.340962 142.56 
L 351.340962 142.56 
L 352.503173 142.56 
L 352.503173 142.56 
L 353.665385 142.56 
L 353.665385 142.56 
L 354.827596 142.56 
L 354.827596 142.56 
L 355.989808 142.56 
L 355.989808 142.56 
L 357.152019 142.56 
L 357.152019 142.56 
L 358.314231 142.56 
L 358.314231 142.56 
L 359.476442 142.56 
L 359.476442 142.56 
L 360.638654 142.56 
L 360.638654 142.56 
L 361.800865 142.56 
L 361.800865 142.56 
L 362.963077 142.56 
L 362.963077 142.56 
L 364.125288 142.56 
L 364.125288 142.56 
L 365.2875 142.56 
L 365.2875 142.56 
L 366.449712 142.56 
L 366.449712 142.56 
L 367.611923 142.56 
L 367.611923 142.56 
L 368.774135 142.56 
L 368.774135 142.56 
L 369.936346 142.56 
L 369.936346 142.56 
L 371.098558 142.56 
L 371.098558 142.56 
L 372.260769 142.56 
L 372.260769 142.56 
L 373.422981 142.56 
L 373.422981 142.56 
L 374.585192 142.56 
L 374.585192 142.56 
L 375.747404 142.56 
L 375.747404 142.56 
L 376.909615 142.56 
L 376.909615 142.56 
L 378.071827 142.56 
L 378.071827 142.56 
L 379.234038 142.56 
L 379.234038 142.56 
L 380.39625 142.56 
L 380.39625 142.56 
L 381.558462 142.56 
L 381.558462 142.56 
L 382.720673 142.56 
L 382.720673 142.56 
L 383.882885 142.56 
L 383.882885 142.56 
L 385.045096 142.56 
L 385.045096 142.56 
L 386.207308 142.56 
L 386.207308 142.56 
L 387.369519 142.56 
L 387.369519 142.56 
L 388.531731 142.56 
L 388.531731 142.56 
L 389.693942 142.56 
L 389.693942 142.56 
L 390.856154 142.56 
L 390.856154 142.56 
L 392.018365 142.56 
L 392.018365 142.56 
L 393.180577 142.56 
L 393.180577 142.56 
L 394.342788 142.56 
L 394.342788 142.56 
L 395.505 142.56 
L 395.505 142.56 
L 396.667212 142.56 
L 396.667212 142.56 
L 397.829423 142.56 
L 397.829423 142.56 
L 398.991635 142.56 
L 398.991635 142.56 
z
" clip-path="url(#p08cd677c4b)" style="fill: #f472b6; opacity: 0.45; stroke: #f472b6; stroke-width: 0.8; stroke-linejoin: miter"/>
   </g>
   <g id="matplotlib.axis_3">
    <g id="ytick_3"/>
    <g id="ytick_4"/>
   </g>
  </g>
  <g id="text_15">
   <text style="fill: #111827; font: 600 12.5px 'DejaVu Serif'; text-anchor: middle" x="306" y="37.218047" transform="rotate(-0 306 37.218047)">Histidine side chain chemical shifts from BMRB</text>
  </g>
  <g id="legend_1">
   <g id="line2d_58">
    <path d="M 242.92 65.91875 
L 250.92 65.91875 
L 258.92 65.91875 
" style="fill: none; stroke: #60a5fa; stroke-opacity: 0.45; stroke-width: 6; stroke-linecap: square"/>
   </g>
   <g id="text_16">
    <text style="font: 8px 'DejaVu Sans'; text-anchor: start" x="265.32" y="68.71875" transform="rotate(-0 265.32 68.71875)">HIS ND1</text>
   </g>
   <g id="line2d_59">
    <path d="M 314.5525 65.91875 
L 322.5525 65.91875 
L 330.5525 65.91875 
" style="fill: none; stroke: #f472b6; stroke-opacity: 0.45; stroke-width: 6; stroke-linecap: square"/>
   </g>
   <g id="text_17">
    <text style="font: 8px 'DejaVu Sans'; text-anchor: start" x="336.9525" y="68.71875" transform="rotate(-0 336.9525 68.71875)">HIS NE2</text>
   </g>
  </g>
 </g>
 <defs>
  <clipPath id="p99b7f9c608">
   <rect x="214.2" y="116.182545" width="185.953846" height="26.377455"/>
  </clipPath>
  <clipPath id="p08cd677c4b">
   <rect x="214.2" y="116.182545" width="185.953846" height="26.377455"/>
  </clipPath>
 </defs>
</svg>
